<?xml version="1.0" standalone="no"?>
<!DOCTYPE svg PUBLIC "-//W3C//DTD SVG 1.1//EN" "http://www.w3.org/Graphics/SVG/1.1/DTD/svg11.dtd" >
<svg xmlns="http://www.w3.org/2000/svg">
<metadata></metadata>
<defs>
<font id="dsn_sukumwitregular" horiz-adv-x="0" >
<font-face units-per-em="2048" ascent="1638" descent="-410" />
<missing-glyph horiz-adv-x="455" />
<glyph unicode="&#xd;" horiz-adv-x="455" />
<glyph unicode=" "  horiz-adv-x="455" />
<glyph unicode="&#x09;" horiz-adv-x="455" />
<glyph unicode="&#xa0;" horiz-adv-x="455" />
<glyph unicode="!" horiz-adv-x="373" d="M55 107q0 116 126 116q49 0 82.5 -33.5t33.5 -82.5q0 -125 -116 -125q-126 0 -126 125zM76 383v474q0 49 28.5 83.5t76.5 34.5t76 -34.5t28 -83.5v-474q0 -49 -27 -83q-29 -38 -77 -38t-76.5 36t-28.5 85z" />
<glyph unicode="&#x22;" horiz-adv-x="640" d="M94 625v243q0 87 90 87q89 0 89 -87v-243q0 -87 -89 -87q-90 0 -90 87zM359 625v243q0 87 89 87q38 0 64 -24.5t26 -62.5v-243q0 -87 -90 -87q-89 0 -89 87z" />
<glyph unicode="#" horiz-adv-x="839" d="M67 330q0 74 72 74h62l22 145h-54q-66 0 -66 68q0 72 78 72h62l33 210q0 63 69 63q25 0 47.5 -16.5t22.5 -40.5v-6l-32 -210h115l31 210q4 29 23.5 46t45.5 17q24 0 46.5 -16t22.5 -39v-8l-31 -210h53q29 0 49 -22t20 -51q0 -67 -79 -67h-67l-21 -145h54q64 0 64 -70 q0 -69 -73 -69h-65l-31 -210q-9 -64 -77 -64q-62 0 -62 53l3 11l31 210h-118l-32 -210q0 -27 -23.5 -45.5t-51.5 -18.5q-62 0 -62 53l1 11l32 210h-52q-62 0 -62 65zM341 404h116l20 145h-116z" />
<glyph unicode="$" horiz-adv-x="870" d="M83 144q0 42 33.5 76.5t75.5 34.5q23 0 46 -12q80 -42 162 -42v193q-123 29 -187 70q-121 77 -121 215q0 127 92 211q85 76 216 93v44q0 57 40 57q43 0 43 -57v-44q96 0 190 -63q41 -28 41 -83q0 -39 -24 -74q-27 -39 -65 -39q-26 0 -48 17q-27 16 -40 21q-28 12 -54 12 v-183q96 -30 118 -40q178 -78 178 -266q0 -123 -87 -213t-209 -90v-43q0 -53 -43 -53q-40 0 -40 53v43q-192 0 -265 73q-52 39 -52 89zM311 689q19 -61 89 -77v162q-27 -9 -64 -33q-25 -21 -25 -52zM483 201q62 0 62 75q0 78 -62 97v-172z" />
<glyph unicode="%" horiz-adv-x="938" d="M21 754q0 90 60 153.5t149 63.5q90 0 151.5 -63.5t61.5 -153.5q0 -93 -60.5 -159t-152.5 -66q-95 0 -152 64t-57 161zM135 46q0 33 23 72l474 813q26 45 77 45q76 0 76 -72q0 -22 -15 -56l-488 -834q-17 -40 -70 -40q-77 0 -77 72zM179 754q0 -56 51 -56q52 0 52 56 q0 51 -52 51q-51 0 -51 -51zM485 192q0 100 57 161.5t156 61.5q86 0 147.5 -68t61.5 -155q0 -95 -56 -157q-59 -65 -153 -65q-98 0 -155.5 62t-57.5 160zM642 192q0 -55 53 -55q56 0 56 55q0 51 -53 51q-56 0 -56 -51z" />
<glyph unicode="&#x26;" horiz-adv-x="938" d="M18 256q0 192 212 305q-86 100 -86 187q0 102 96 166q84 57 191 57q113 0 190 -58q86 -65 86 -174q0 -153 -158 -241l128 -148q10 11 30 36q17 24 44 60q21 39 71 39q91 0 91 -89q0 -30 -16 -68q-12 -28 -53 -73q-11 -12 -42 -43q11 -17 22 -28q38 -39 41 -45 q18 -31 18 -63q0 -37 -30 -63.5t-68 -26.5q-39 0 -98 61q-17 17 -35 39q-37 -38 -126 -72q-100 -38 -192 -38q-226 0 -303 205q-13 35 -13 75zM232 273q0 -31 41 -80q33 -40 94 -40q97 0 160 70l-179 192q-116 -74 -116 -142zM359 754q0 -59 72 -129q76 43 76 116 q0 75 -76 75q-72 0 -72 -62z" />
<glyph unicode="'" horiz-adv-x="373" d="M-4 642q0 36 18 67l115 200q21 36 44 51q27 16 57 16q39 0 71.5 -25t32.5 -63q0 -30 -17 -51l-136 -234q-34 -58 -93 -58q-39 0 -65.5 29t-26.5 68z" />
<glyph unicode="(" horiz-adv-x="373" d="M49 383q0 307 100 526q30 66 94 66q36 0 61.5 -26.5t25.5 -62.5q0 -27 -13 -60q-87 -224 -87 -441q0 -232 98 -488q8 -14 8 -39q0 -36 -24.5 -63t-60.5 -27q-63 0 -102 77q-100 197 -100 538z" />
<glyph unicode=")" horiz-adv-x="373" d="M9 892q0 37 26 60.5t63 23.5q66 0 94 -56q110 -217 110 -547q0 -312 -110 -537q-29 -59 -92 -59q-79 0 -79 91q0 31 14 71q72 204 72 452q0 254 -83 446q-15 21 -15 55z" />
<glyph unicode="*" horiz-adv-x="540" d="M18 795q0 73 68 73q36 0 63 -20l43 -32l-11 83l-2 6q0 55 74 55q24 0 49.5 -15t25.5 -38v-8l-11 -83l44 32q28 20 56 20q29 0 48.5 -24.5t19.5 -54.5q0 -43 -39 -59l-52 -21l63 -42q32 -21 32 -57q0 -26 -20.5 -43.5t-46.5 -17.5q-16 0 -36 9q-2 1 -25 13l-44 32l11 -83 q0 -57 -73 -57q-74 0 -74 57l11 83l-43 -32q-22 -22 -57 -22q-27 0 -46.5 20t-19.5 47q0 32 29 51l63 42l-51 21q-49 20 -49 65z" />
<glyph unicode="+" horiz-adv-x="890" d="M44 461q0 100 93 100h200v211q0 42 30 67.5t73 25.5q100 0 100 -93v-211h214q42 0 72.5 -29t30.5 -71q0 -43 -24 -72q-26 -32 -68 -32h-225v-202q0 -42 -29 -73t-71 -31q-43 0 -73 25.5t-30 67.5v213h-200q-42 0 -67.5 30.5t-25.5 73.5z" />
<glyph unicode="," horiz-adv-x="373" d="M-35 -112q0 34 17 63l116 198q21 36 44 50q27 17 57 17q38 0 70.5 -26t32.5 -63q0 -28 -17 -51l-136 -231q-32 -55 -92 -55q-38 0 -65 30t-27 68z" />
<glyph unicode="-" horiz-adv-x="890" d="M44 461q0 44 25 77t68 33h617q42 0 72.5 -34t30.5 -76q0 -43 -24 -72q-26 -32 -68 -32h-628q-42 0 -67.5 30.5t-25.5 73.5z" />
<glyph unicode="." horiz-adv-x="373" d="M44 107q0 116 125 116q49 0 82.5 -33.5t33.5 -82.5q0 -125 -116 -125q-125 0 -125 125z" />
<glyph unicode="/" horiz-adv-x="640" d="M14 55q0 31 17 63l423 802q29 55 79 55q31 0 54 -23.5t23 -54.5q0 -23 -9 -40l-443 -843q-21 -40 -66 -40q-34 0 -56 23.5t-22 57.5z" />
<glyph unicode="0" horiz-adv-x="870" d="M26 498q0 78 31 171q101 302 383 302q265 0 361 -321q31 -104 31 -193q0 -194 -94 -331q-107 -156 -292 -156h-15q-200 0 -308 161q-93 139 -93 346q-4 13 -4 21zM251 466q0 -101 40 -182q43 -87 129 -103l11 -2q83 0 130 103q37 81 37 175q0 281 -158 297h-13 q-87 0 -136 -102q-40 -83 -40 -186z" />
<glyph unicode="1" horiz-adv-x="472" d="M-14 862q0 100 77 100h230q29 0 56 -33q22 -27 22 -41v-770q0 -50 -30 -87q-32 -40 -81 -40q-51 0 -80 42q-25 36 -25 90l3 16v624h-107q-31 0 -50 36q-15 29 -15 63z" />
<glyph unicode="2" horiz-adv-x="707" d="M5 94q0 76 78 138q240 240 304 373q22 46 22 77q0 23 -8 39q-6 42 -77 42q-38 0 -51 -9q-23 -17 -59 -117q-27 -76 -100 -76l-11 -2q-89 0 -89 118q0 68 28 128q82 176 286 176q132 0 223 -86.5t91 -217.5q0 -50 -10 -97q-12 -57 -78 -141q-77 -76 -215 -238h250 q37 0 59 -34q19 -30 19 -69q0 -94 -78 -94h-495q-89 0 -89 90z" />
<glyph unicode="3" horiz-adv-x="707" d="M-5 232q0 109 91 109q76 0 104 -56q44 -90 134 -90t107 90v19q0 100 -92 100l-15 -3q-47 0 -83.5 34.5t-36.5 81.5q0 44 33 71q31 24 76 24q88 34 88 92q0 32 -25 52t-57 20q-66 0 -130 -78q-34 -42 -80 -42q-39 0 -67 32t-28 72l7 35q10 51 87 112q95 76 202 76h18 q119 0 198 -68q84 -73 84 -189q0 -123 -93 -197q150 -85 150 -236q0 -130 -98.5 -220.5t-229.5 -90.5q-94 0 -201 54q-121 62 -138 145q-5 24 -5 51z" />
<glyph unicode="4" horiz-adv-x="839" d="M-21 304q0 3 12 69l127 176l190 319q32 54 74 76q47 25 101 25q68 0 118 -37q55 -40 55 -106v-411h53q43 0 70.5 -34.5t27.5 -78.5q0 -90 -77 -90h-74v-94q0 -48 -28 -83t-75 -35q-48 0 -77.5 34.5t-29.5 83.5v94h-379q-88 0 -88 92zM243 415h203v339z" />
<glyph unicode="5" horiz-adv-x="707" d="M5 175q0 43 28 77.5t70 34.5q35 0 64 -22q70 -53 143 -53q121 0 121 129q0 60 -30 102q-33 47 -90 47q-36 0 -58 -24q-38 -30 -84 -30q-39 0 -65 20q-33 25 -30 64l9 125l31 232q0 85 107 85h338q93 0 93 -100q0 -99 -93 -99h-266l-11 -107q42 14 101 14q126 0 206 -99 q74 -92 74 -221v-22q-14 -153 -110 -240.5t-249 -87.5q-126 0 -221 55q-78 45 -78 120z" />
<glyph unicode="6" horiz-adv-x="739" d="M4 341q-3 89 63 217q49 95 129 200q34 43 103 130q72 93 144 93q43 0 69 -32t26 -75q0 -8 -5 -48l-190 -223q39 7 77 7q121 0 199 -94q74 -89 74 -212v-19q-13 -145 -98.5 -224t-229.5 -79h-37q-133 0 -228 93q-91 89 -95 233zM225 297q28 -107 111 -107l18 2 q99 0 114 116v5q0 51 -36.5 82.5t-88.5 31.5q-118 0 -118 -130z" />
<glyph unicode="7" horiz-adv-x="640" d="M-14 857q0 39 19 69q21 36 58 36h475q41 0 70 -49q24 -41 24 -76v-11l-350 -759q-33 -72 -101 -72q-43 0 -73.5 31t-30.5 74q0 34 17 69l286 594h-306q-88 0 -88 94z" />
<glyph unicode="8" horiz-adv-x="770" d="M21 293q0 156 127 236q-85 73 -85 197q0 75 31 122q41 62 127 97q76 30 159 30q187 0 262 -118q40 -63 40 -155q0 -108 -72 -162q123 -102 123 -243q0 -80 -35 -148q-42 -80 -134 -124q-82 -39 -181 -39q-105 0 -194 45q-99 49 -138 138q-10 23 -22 67q-8 29 -8 57z M253 317q12 -116 127 -116q52 0 89.5 32t37.5 84q0 56 -39 91t-95 35q-120 0 -120 -126zM282 698q0 -36 30.5 -61t67.5 -25q83 0 83 97q0 35 -26.5 56.5t-62.5 21.5q-39 0 -65.5 -25.5t-26.5 -63.5z" />
<glyph unicode="9" horiz-adv-x="739" d="M5 645q0 181 123 271q104 77 231 70l58 -3q281 -61 281 -310q0 -230 -209 -502q-111 -144 -188 -165q-23 -6 -45 -6q-39 0 -66 22q-30 23 -30 61q0 41 33 86q2 2 96 99q65 67 65 93q-44 -11 -81 -11q-124 0 -201 99q-67 87 -67 196zM223 652l2 -7q7 -49 43.5 -82.5 t85.5 -33.5q114 0 114 127q0 49 -32.5 79t-81.5 30q-52 0 -90 -30q-41 -33 -41 -83z" />
<glyph unicode=":" horiz-adv-x="373" d="M44 129q0 114 125 114q49 0 82.5 -33t33.5 -81q0 -125 -116 -125q-125 0 -125 125zM44 540q0 53 35.5 84.5t89.5 31.5q48 0 82 -34t34 -82q0 -125 -116 -125q-125 0 -125 125z" />
<glyph unicode=";" horiz-adv-x="373" d="M-18 -109q0 12 9 60l127 230q34 44 86 44q37 0 67.5 -28t30.5 -65q0 -25 -5 -34l-137 -253q-19 -44 -88 -44q-90 0 -90 90zM55 529q0 116 126 116q48 0 82 -34t34 -82q0 -125 -116 -125q-126 0 -126 125z" />
<glyph unicode="&#x3c;" horiz-adv-x="839" d="M37 391q0 31 27 59q22 23 75 48l473 223q41 12 58 12q38 0 68.5 -25.5t30.5 -62.5q0 -27 -16 -47.5t-55 -36.5l-401 -167l401 -182q42 -19 58 -41q20 -28 20 -57q0 -65 -81 -65q-27 0 -70 18l-297 125l-199 93q-92 43 -92 106z" />
<glyph unicode="=" horiz-adv-x="890" d="M22 614q0 42 25.5 72.5t66.5 30.5h628q42 0 67.5 -30t25.5 -73q0 -100 -93 -100h-617q-42 0 -72.5 29t-30.5 71zM33 271q0 43 25 73t67 30h629q42 0 67 -30t25 -73q0 -100 -92 -100h-617q-42 0 -73 29t-31 71z" />
<glyph unicode="&#x3e;" horiz-adv-x="839" d="M30 656q0 72 84 72q46 0 87 -19l497 -232q45 -21 61.5 -42.5t16.5 -45.5q0 -68 -78 -104l-529 -241q-29 -13 -49 -13q-35 0 -62 24t-27 59q0 29 16 52q13 18 51 35l410 182l-180 83l-210 83q-88 35 -88 107z" />
<glyph unicode="?" horiz-adv-x="707" d="M0 758v27l22 54q86 156 282 156q176 0 272 -107q66 -74 66 -190v-19q0 -102 -63 -180q-68 -84 -168 -84v-14q0 -51 -31 -88t-81 -37q-41 0 -70.5 28t-29.5 69v135q0 58 99.5 82t102.5 55v24q0 91 -90 91q-76 0 -90 -30q-40 -83 -127 -83q-94 0 -94 111zM179 107 q0 116 125 116q49 0 83.5 -34t34.5 -82q0 -125 -118 -125q-125 0 -125 125z" />
<glyph unicode="@" horiz-adv-x="1106" d="M31 489q0 188 143 342q152 164 366 164h19q202 0 326 -110q130 -115 130 -314v-33q0 -146 -124 -256q-109 -96 -212 -96q-78 0 -78 69q-54 -40 -146 -58q-10 -2 -12 -2q-79 0 -136 83q-51 74 -51 157q0 17 6 54q16 100 87 173q75 79 173 79q97 0 155 -74q17 68 74 68 q51 0 51 -46v-28q0 -52 -21 -156t-21 -155q14 -5 19 -5q53 0 88 74q30 62 30 121q0 136 -90.5 226.5t-226.5 90.5h-26q-140 0 -241 -78q-108 -83 -123 -218q0 -16 -3 -47t-3 -46q-1 -75 21 -133q27 -71 88 -123q51 -44 130 -72q71 -26 141 -26q119 0 217 55q30 17 56 17 q49 0 49 -38q0 -26 -21 -50q-44 -49 -158 -81q-94 -26 -158 -26q-360 0 -477 288q-41 101 -41 210zM411 457q0 -121 81 -121l25 5q110 22 125 136v8q0 44 -35 74q-33 27 -78 27q-55 0 -86.5 -36.5t-31.5 -92.5z" />
<glyph unicode="A" horiz-adv-x="870" d="M4 103q0 35 26 109l230 656q59 120 149 120q111 0 157 -120l266 -687q10 -27 10 -67q0 -45 -28 -78q-29 -36 -73 -36q-78 0 -111 98l-32 94h-360l-20 -85q-11 -46 -45 -79t-79 -33q-90 0 -90 108zM302 394h233l-115 347z" />
<glyph unicode="B" horiz-adv-x="807" d="M40 76v781q16 105 83 105h329q93 0 158 -86q60 -79 60 -174q0 -119 -104 -182q83 -14 137 -90q51 -72 51 -159q0 -106 -74 -179q-67 -65 -177 -88h-380q-32 0 -57.5 20.5t-25.5 51.5zM260 192h160q46 0 66 9q38 17 38 66v18q0 33 -19 63q-22 35 -53 35h-192v-191z M260 580h140q57 0 57 78q0 34 -17 62q-20 34 -51 34h-129v-174z" />
<glyph unicode="C" horiz-adv-x="807" d="M9 489q0 204 125 347q131 150 332 150q52 0 120 -15q187 -41 184 -145l-1 -31q-21 -71 -80 -71q-12 0 -30 5q-42 12 -51 12q-56 22 -129 22q-154 0 -219 -160q-9 -31 -9 -81q0 -153 51 -237q71 -81 177 -81q30 0 65 8q8 2 69 22q41 13 71 13q101 0 101 -94 q0 -85 -81 -118q-88 -46 -150 -46h-5l-66 2h-24q-183 0 -309 123q-141 137 -141 375z" />
<glyph unicode="D" horiz-adv-x="907" d="M37 86v771q18 105 83 105h297q219 0 349 -154q117 -138 117 -336q0 -191 -112 -322q-125 -146 -335 -146h-294q-40 0 -71 20q-34 23 -34 62zM256 201h140q107 12 168 91q57 75 57 185q0 98 -44 174q-51 88 -141 103h-180v-553z" />
<glyph unicode="E" horiz-adv-x="640" d="M51 76v792q0 42 27.5 68t69.5 26h346q46 0 74 -33.5t28 -80.5q0 -94 -79 -94h-255v-174h232q86 0 86 -103q0 -36 -18 -63q-21 -31 -55 -31h-245v-182h232q114 0 114 -98q0 -37 -21 -67q-24 -32 -60 -32h-400q-24 0 -50 24t-26 48z" />
<glyph unicode="F" horiz-adv-x="608" d="M46 86v782q0 94 86 94h369q44 0 72 -33q25 -31 25 -76q0 -90 -76 -90h-266v-172h234q80 0 80 -93q0 -39 -20 -69q-23 -35 -60 -35h-234v-308q0 -38 -31 -62t-70 -24q-85 0 -109 86z" />
<glyph unicode="G" horiz-adv-x="1006" d="M31 431q0 6 2 17.5t2 17.5l-4 37q0 197 131.5 338.5t327.5 141.5h18q107 0 178 -21q109 -32 171 -114q17 -23 17 -61q0 -42 -31.5 -73.5t-73.5 -31.5q-45 0 -90 39q-29 19 -71 34q-57 21 -110 21q-151 0 -213 -164q-23 -61 -23 -127q0 -121 61 -199q67 -85 185 -85 q167 0 201 172h-148q-38 0 -62 32q-22 29 -22 68q0 98 84 98h287q86 0 86 -119v-16q0 -91 -41 -191q-42 -103 -106 -160q-105 -94 -289 -94h-32q-172 0 -303.5 133.5t-131.5 306.5z" />
<glyph unicode="H" horiz-adv-x="938" d="M42 86v802q0 34 34 59q31 24 66 24q66 0 111 -72v-308h414v297q0 78 93 78q47 0 80 -25q37 -27 37 -73v-770q0 -46 -32.5 -74.5t-79.5 -28.5q-98 0 -98 91v308h-414v-308q0 -38 -33 -66.5t-72 -28.5q-95 0 -106 95z" />
<glyph unicode="I" horiz-adv-x="341" d="M49 98v779q0 99 104 99q43 0 73 -22q34 -24 34 -66v-790q0 -44 -29 -73.5t-73 -29.5q-40 0 -71 26q-38 32 -38 77z" />
<glyph unicode="J" horiz-adv-x="571" d="M-30 153q0 43 32 76t75 33q44 0 78 -30q22 -16 49 -16q78 0 78 92v569q0 89 112 89q109 0 109 -89v-612q0 -126 -89 -198q-82 -67 -210 -67q-95 0 -155 35q-79 46 -79 118z" />
<glyph unicode="K" horiz-adv-x="807" d="M49 86v802q0 87 106 87q105 0 105 -87v-297l326 360q27 30 70 30q45 0 82.5 -31.5t37.5 -75.5q0 -45 -28 -79l-265 -266l306 -337q33 -36 33 -83t-40.5 -80t-88.5 -33q-38 0 -63 28l-359 402v-340q0 -86 -111 -86t-111 86z" />
<glyph unicode="L" horiz-adv-x="608" d="M37 86v782q0 113 107 113q45 0 77 -23q35 -27 35 -70v-676h256q86 0 86 -105q0 -103 -86 -103h-380q-34 0 -64.5 24t-30.5 58z" />
<glyph unicode="M" horiz-adv-x="1174" d="M5 103q0 -9 9 46l115 708q9 54 50.5 90t96.5 36q47 0 87 -27q35 -25 52 -79l146 -462l160 462q18 52 59.5 80.5t87.5 28.5q51 0 89 -32t49 -97l118 -745v-9q0 -43 -26 -71q-30 -32 -68 -32q-43 0 -77 32.5t-44 96.5l-72 442l-148 -485q-26 -86 -118 -86q-39 0 -71 23 q-28 19 -43 63l-160 475l-65 -443q-9 -60 -39 -87q-35 -31 -79 -31t-76.5 30t-32.5 73z" />
<glyph unicode="N" horiz-adv-x="938" d="M42 86v802q0 38 39 62q33 21 74 21q66 0 98 -51l414 -516v484q0 87 107 87q38 0 68 -18q35 -22 35 -58v-823q0 -35 -38 -59q-32 -21 -70 -21q-73 0 -102 59l-414 525v-494q0 -41 -33.5 -65.5t-75.5 -24.5q-92 0 -102 90z" />
<glyph unicode="O" horiz-adv-x="1006" d="M21 479q0 227 119 367q127 149 349 149q185 0 312 -113q150 -134 150 -384v-21q0 -119 -45 -226q-49 -116 -137 -183q-113 -86 -280 -86q-77 0 -162 29q-303 103 -303 446zM253 501l2 -24q13 -151 61 -210q61 -75 173 -75q113 0 176 89q56 78 56 196q0 289 -213 308h-18 q-106 0 -171 -81q-67 -83 -67 -180q0 -11 1 -23z" />
<glyph unicode="P" horiz-adv-x="770" d="M31 98v779q0 36 34 63q28 22 49 22h297q146 0 232.5 -88t86.5 -234q0 -133 -70 -227q-78 -105 -206 -105h-201v-222q0 -44 -33 -70.5t-78 -26.5q-111 0 -111 109zM253 508h138q51 0 83 37q29 35 29 87t-29 90q-32 41 -83 41h-138v-255z" />
<glyph unicode="Q" horiz-adv-x="1006" d="M11 461l3 28l-3 25q0 97 38 194q112 287 440 287h14q157 0 292 -124q156 -143 156 -363q0 -98 -19 -163q-13 -47 -64 -153l103 -106q17 -17 17 -55q0 -37 -29.5 -62.5t-66.5 -25.5q-27 0 -44 8l-127 104q-119 -64 -244 -64q-225 0 -354 154q-112 134 -112 316zM241 485 q0 -127 59 -201q68 -85 185 -85h18l37 2q-67 51 -67 110q0 39 29 67t68 28q67 0 119 -65q25 84 25 153q0 117 -57 199q-65 92 -178 92h-22q-84 -8 -130 -51q-42 -38 -72 -122q-14 -77 -14 -127z" />
<glyph unicode="R" horiz-adv-x="770" d="M31 107v770q0 25 24 55t48 30h360q107 0 183 -84q73 -81 73 -189q0 -195 -157 -260q-52 -22 -55 -25v-10l212 -225q20 -21 20 -55q0 -43 -40 -76.5t-83 -33.5q-45 0 -78 40l-285 350v-287q0 -44 -35 -75.5t-79 -31.5q-90 0 -108 107zM253 561h158q37 0 62 31t25 69 q0 84 -87 102h-158v-202z" />
<glyph unicode="S" horiz-adv-x="739" d="M-5 153q0 32 10 59q32 53 78 53q24 0 48 -10q17 -8 53 -23q112 -28 144 -28q94 0 108 72l4 21q0 34 -30 58q-22 18 -91 39q-72 22 -107 34q-89 30 -139 78q-69 67 -69 153v14l1 16q10 154 118 228q96 66 222 66h29q68 0 135 -25q82 -31 98 -81l3 -45v-8q0 -39 -27 -65 q-30 -29 -75 -29q-35 0 -81 24q-43 15 -79 15q-37 0 -69 -17q-38 -21 -43 -54l-4 -10q0 -36 113 -67q153 -42 211 -81q114 -77 114 -223t-91 -236t-238 -90h-22q-174 0 -273 64q-51 25 -51 98z" />
<glyph unicode="T" horiz-adv-x="640" d="M-40 862q0 100 91 100h476q115 0 115 -100q0 -34 -18 -66q-22 -36 -54 -36l-11 3h-148v-656q0 -47 -30 -75t-77 -28q-40 0 -70 21q-35 23 -35 61v677h-157q-82 0 -82 99z" />
<glyph unicode="U" horiz-adv-x="938" d="M31 383v485q0 101 113 101q44 0 76.5 -25t32.5 -67v-504q0 -80 62 -131q58 -49 139 -49q75 0 126.5 46.5t51.5 121.5v507q0 45 33 71.5t79 26.5q109 0 109 -89v-536q0 -162 -127 -260q-117 -90 -283 -90q-181 0 -295 104q-117 108 -117 288z" />
<glyph unicode="V" horiz-adv-x="770" d="M-40 877q0 85 107 85q88 0 112 -63l192 -505l188 505q26 70 111 70q44 0 78 -23q37 -27 37 -69q0 -19 -4 -29l-296 -762q-33 -86 -118 -86q-71 0 -105 86l-293 751q-9 16 -9 40z" />
<glyph unicode="W" horiz-adv-x="1237" d="M-18 872q0 42 41 70q36 24 80 24q37 0 65 -19q24 -17 33 -59l116 -527l149 476q22 70 57 107q40 42 84 42q40 0 74.5 -37.5t59.5 -122.5l136 -465l118 527q12 93 106 93q49 0 82.5 -32t33.5 -81l-179 -770q-24 -102 -144 -102q-45 0 -83 22q-35 19 -48 58l-160 485 l-146 -463q-14 -45 -59 -74t-94 -29q-45 0 -82 27q-42 30 -53 76z" />
<glyph unicode="X" horiz-adv-x="839" d="M0 98q0 55 35 103l241 328l-209 266q-27 34 -27 79t37 75q34 27 81 27q46 0 65 -25l181 -242l176 242q27 30 72 30q47 0 80 -30t33 -77q0 -38 -11 -69l-225 -285l245 -319q42 -55 42 -107q0 -45 -35.5 -71.5t-82.5 -26.5q-45 0 -62 28l-232 317l-212 -297 q-50 -48 -104 -48q-39 0 -63.5 31t-24.5 71z" />
<glyph unicode="Y" horiz-adv-x="739" d="M-46 874q0 45 37 77t83 32q56 0 79 -43l190 -273l179 264q34 50 88 50q44 0 84.5 -33t40.5 -76q0 -31 -11 -46l-276 -380v-370q0 -40 -34 -64q-29 -21 -71 -21q-44 0 -75.5 26t-31.5 69v360l-273 380q-9 20 -9 48z" />
<glyph unicode="Z" horiz-adv-x="739" d="M-11 114q0 31 16 67l431 582h-316q-124 0 -124 99q0 37 22.5 68.5t58.5 31.5h498q134 0 134 -105q0 -38 -16 -83l-426 -573h371q42 0 69.5 -28t27.5 -70q0 -89 -88 -99h-538q-50 0 -85 30t-35 80z" />
<glyph unicode="[" horiz-adv-x="472" d="M83 -123v1032q0 86 75 86h201q72 0 72 -86q0 -72 -60 -72h-109v-898h109q65 0 65 -66q0 -25 -5 -37q-10 -25 -17 -35q-13 -19 -34 -19h-222q-75 20 -75 95z" />
<glyph unicode="\" horiz-adv-x="640" d="M0 934q0 30 23.5 54t53.5 24q63 0 90 -72l422 -822q12 -23 12 -46q0 -31 -23 -51.5t-54 -20.5q-46 0 -70 44l-233 433l-210 422q-11 22 -11 35z" />
<glyph unicode="]" horiz-adv-x="472" d="M-5 -142q0 81 79 81h93v898h-116q-55 0 -55 77q0 81 55 81h222q26 0 50.5 -24.5t24.5 -50.5v-1075q0 -21 -22.5 -42t-43.5 -21h-219q-68 0 -68 76z" />
<glyph unicode="^" horiz-adv-x="839" d="M86 492q0 9 5 22q2 4 7 15l103 212l116 199q32 55 79 55q62 0 102 -75l211 -400q6 -9 6 -30q0 -54 -79 -54q-54 0 -75 41l-157 308l-172 -319q-14 -26 -68 -26q-78 0 -78 52z" />
<glyph unicode="_" horiz-adv-x="582" d="M-30 -129q0 41 60 41l12 -4h496q55 0 55 -35q0 -37 -31 -37h-520q-72 0 -72 35z" />
<glyph unicode="`" horiz-adv-x="373" d="M-14 640q0 24 16 51l137 234q34 58 91 58q38 0 65 -30t27 -68q0 -26 -16 -67l-114 -201q-39 -68 -104 -68q-39 0 -70.5 26.5t-31.5 64.5z" />
<glyph unicode="a" horiz-adv-x="770" d="M0 373v16q0 123 94 241q99 124 219 124h26q74 0 168 -75q22 65 89 65q42 0 76.5 -29t34.5 -70v-559q0 -39 -35 -62q-30 -20 -71 -20l-17 -4q-30 0 -58 28l-28 27h-4q-72 -66 -170 -66q-144 0 -238 123q-86 113 -86 261zM206 383l4 -10q0 -62 34 -115q43 -66 115 -66 q64 0 102 61q33 53 33 120q0 70 -34 118q-39 54 -106 54q-65 0 -106.5 -48t-41.5 -114z" />
<glyph unicode="b" horiz-adv-x="770" d="M31 86v834q0 123 98 123q40 0 70.5 -26t30.5 -66v-262q94 52 187 52q138 0 233 -117q89 -110 89 -251q0 -156 -90 -266q-80 -98 -186 -116q-29 -5 -59 -5q-121 0 -174 81q-33 -67 -101 -67q-38 0 -68 24.5t-30 61.5zM230 383q0 -76 32 -128q38 -63 109 -63l12 -2 q68 0 109 65q35 55 35 128q0 67 -41.5 112t-107.5 45t-107 -45t-41 -112z" />
<glyph unicode="c" horiz-adv-x="640" d="M30 367l1 16l-1 17v13q0 102 88 209q99 119 241 119h32q79 0 147 -20q92 -27 92 -120q0 -39 -25.5 -66t-64.5 -27q-30 0 -77 21q-25 11 -62 11q-69 0 -116 -48.5t-47 -117.5l3 -13q1 -87 43 -131q39 -41 101 -40h11l35 2q17 1 54.5 17t58.5 16q32 0 57 -24q29 -28 29 -78 q0 -15 -9 -37q-60 -97 -232 -97q-144 0 -242 86q-118 103 -118 264q0 14 1 28z" />
<glyph unicode="d" horiz-adv-x="770" d="M0 373q0 177 108 282q95 93 222 93q103 0 164 -59v251q0 47 31 77.5t78 30.5q45 0 74.5 -31t29.5 -77v-833q0 -91 -97 -103l-12 -4q-28 0 -104 67q-76 -78 -175 -78q-137 0 -232 127q-87 116 -87 257zM206 343q0 -61 46 -106t107 -45q66 0 107 59q35 53 35 122 q0 70 -35 116q-39 51 -107 51q-149 0 -149 -179q-4 -13 -4 -18z" />
<glyph unicode="e" horiz-adv-x="770" d="M0 361q0 154 104 267t257 113h19q148 0 235 -102q78 -92 92 -245q0 -48 -10 -65q-13 -22 -55 -32h-412q0 -30 39 -70q47 -48 105 -48l17 2q37 4 124 38q81 32 106 32q38 0 67 -39q10 -18 10 -48q0 -82 -124 -133q-98 -40 -194 -40q-187 0 -294 133q-86 107 -86 237z M221 446h273q-11 26 -40 74q-27 24 -74 41h-21q-88 0 -138 -115z" />
<glyph unicode="f" horiz-adv-x="472" d="M-35 626q0 36 21.5 65.5t55.5 29.5h52l-2 33q-1 11 -1 23q0 108 62 191q60 80 160 80h11q50 0 92.5 -34t42.5 -83q0 -57 -68 -83l-65 -9q-22 -3 -22 -23v-95h87q37 0 59.5 -28.5t22.5 -66.5q0 -97 -93 -97h-76v-431q0 -98 -94 -98q-44 0 -75.5 31t-31.5 76v422h-52 q-86 20 -86 97z" />
<glyph unicode="g" horiz-adv-x="770" d="M8 400q0 123 97.5 238.5t233.5 115.5q116 0 168 -87q37 68 101 68q42 0 70 -28.5t29 -70.5l12 -581v-5q0 -104 -81 -207q-99 -125 -258 -125h-32q-154 0 -234 44q-90 49 -90 120q0 35 31.5 61t67.5 26q28 0 56 -18q54 -43 160 -43q65 0 104 20q19 10 42 67q22 54 22 79 v12q-29 -41 -96 -64q-52 -18 -98 -18q-151 0 -237 137q-54 87 -65 209l-2 23q-1 13 -1 27zM221 373q0 -70 34 -123q39 -60 106 -60q69 0 110 59q36 52 36 124q0 48 -32 99q-38 60 -95 68h-19q-65 0 -104 -52q-36 -48 -36 -115z" />
<glyph unicode="h" horiz-adv-x="770" d="M42 98v833q0 117 100 117q96 0 111 -97v-262q78 59 178 59q110 0 182 -64q75 -67 75 -176v-410q0 -44 -27.5 -73t-71.5 -29q-48 0 -77 38q-27 35 -27 84v328q0 51 -36.5 83t-87.5 32q-108 0 -108 -104v-359q0 -98 -98 -98q-45 0 -79 27t-34 71z" />
<glyph unicode="i" horiz-adv-x="304" d="M21 909q0 118 127 118q48 0 81 -35t33 -83q0 -124 -114 -124q-127 0 -127 124zM42 129v462q0 52 23 88q28 42 77 42q46 0 74 -37q25 -33 25 -81v-485q0 -49 -24 -83q-28 -39 -75 -39q-49 0 -77 44q-23 37 -23 89z" />
<glyph unicode="j" horiz-adv-x="304" d="M11 920q0 118 126 118q47 0 81.5 -35.5t34.5 -82.5q0 -125 -116 -125q-126 0 -126 125zM31 -186v811q0 114 106 114q46 0 75 -28.5t29 -74.5v-822q0 -111 -99 -111q-47 0 -79 32t-32 79z" />
<glyph unicode="k" horiz-adv-x="707" d="M40 127l2 12v801q0 46 27 77t73 31q48 0 79.5 -30.5t31.5 -77.5v-442l210 211q26 26 70 26q42 0 74.5 -26t32.5 -67q0 -33 -19 -62l-167 -165l209 -255q19 -23 19 -57q0 -39 -33 -68.5t-72 -29.5q-54 0 -104 62l-220 274v-234q0 -45 -29.5 -76t-74.5 -31q-51 0 -81 39 q-28 36 -28 88z" />
<glyph unicode="l" horiz-adv-x="304" d="M21 118v813q0 49 28.5 82.5t77.5 33.5q46 0 74.5 -30.5t28.5 -76.5v-822q0 -47 -26 -80t-72 -33q-47 0 -79 33t-32 80z" />
<glyph unicode="m" horiz-adv-x="1174" d="M44 98v538q0 88 95 88t104 -68q81 77 177 77q100 0 205 -77q20 15 60.5 44.5t77.5 29.5q21 3 45 3h14q100 0 175 -54q83 -61 83 -157v-415q0 -44 -30.5 -77.5t-74.5 -33.5q-88 0 -107 111v328q0 47 -26.5 80.5t-72.5 33.5q-49 0 -77 -38q-25 -34 -25 -85v-319 q0 -44 -28.5 -75.5t-72.5 -31.5q-54 0 -84 50q-25 42 -25 99v297q0 103 -103 103q-44 0 -71.5 -29.5t-27.5 -73.5v-348q0 -44 -31 -73.5t-75 -29.5t-74.5 29.5t-30.5 73.5z" />
<glyph unicode="n" horiz-adv-x="770" d="M42 107v484q0 133 95 133q68 0 104 -79q48 85 194 85q103 0 171 -53q72 -56 82 -157v-422q0 -47 -29 -78t-75 -31q-52 0 -81.5 38t-29.5 91v308q0 54 -29.5 90.5t-82.5 36.5q-46 0 -77 -30.5t-31 -76.5v-339q0 -47 -28.5 -79.5t-75.5 -32.5t-77 32.5t-30 79.5z" />
<glyph unicode="o" horiz-adv-x="770" d="M21 361q0 156 96 271q101 122 254 122h12q144 0 247 -120q98 -114 98 -261q0 -161 -93 -269q-98 -113 -257 -113h-19q-114 0 -217 94q-121 110 -121 276zM230 373q0 -70 35 -118q38 -54 106 -54q71 0 110 52q36 47 36 120q0 69 -38 116q-40 51 -108 51h-17q-63 0 -97 -61 q-27 -48 -27 -106z" />
<glyph unicode="p" horiz-adv-x="770" d="M21 -155v726q0 59 24 103q30 54 84 54q67 0 92 -72q71 83 180 83q68 0 133 -33q60 -31 108 -94q41 -54 61 -114q21 -67 21 -143q0 -148 -81 -251q-88 -113 -232 -113h-10q-88 0 -171 53v-219q0 -107 -93 -107q-52 0 -84 37t-32 90zM230 341q17 -149 150 -149q66 0 105 49 q37 46 37 113q0 66 -37 118q-42 57 -105 57q-150 0 -150 -188z" />
<glyph unicode="q" horiz-adv-x="770" d="M18 336l3 14l-3 28q0 136 89 245q95 116 229 116q103 0 181 -72q41 59 104 59q69 0 98 -90v-800q0 -48 -32 -83t-79 -35q-91 0 -91 118v25q0 156 -10 183q-93 -55 -171 -55q-129 0 -227 118q-91 109 -91 229zM221 373q0 -71 38 -123q43 -58 112 -58q136 0 136 162v29 q0 140 -136 157q-64 0 -107 -51t-43 -116z" />
<glyph unicode="r" horiz-adv-x="472" d="M42 129v496q0 105 102 105q77 0 97 -74q68 85 144 85h21q36 0 64 -40q24 -37 24 -75q0 -53 -40 -77q-100 -36 -142 -54q-71 -31 -71 -101v-265q0 -49 -21 -85q-25 -44 -71 -44q-48 0 -79 42q-28 38 -28 87z" />
<glyph unicode="s" horiz-adv-x="571" d="M-11 144q0 88 94 88q54 0 103 -31q44 -22 79 -22q65 0 65 42q0 23 -28 34q-61 24 -182 72q-111 60 -111 162q0 115 80 185q76 67 193 67q133 0 201 -74q39 -43 39 -87q0 -33 -30 -54q-26 -18 -61 -18q-48 0 -107 32q-13 9 -46 9q-62 0 -62 -37q0 -41 108 -66 q90 -21 151 -84q65 -67 65 -156q0 -93 -80 -152q-68 -50 -168 -63q-147 0 -220 44q-83 36 -83 109z" />
<glyph unicode="t" horiz-adv-x="472" d="M-40 630q0 91 71 91h63v136q0 44 29 73.5t72 29.5q42 0 70 -25.5t28 -66.5v-147h108q31 0 50 -34q15 -28 15 -62q0 -96 -75 -96h-87v-400q0 -55 -26 -92q-30 -42 -83 -42q-46 0 -75 39q-26 36 -26 84v411h-52l-12 -2q-34 0 -54 36q-16 30 -16 67z" />
<glyph unicode="u" horiz-adv-x="770" d="M63 276v349q0 101 101 101q44 0 71 -28.5t27 -72.5v-328q0 -50 33.5 -83t84.5 -33q50 0 82 32.5t32 83.5v315q0 48 28.5 82t75.5 34q48 0 78.5 -33.5t30.5 -82.5v-357q0 -124 -98 -201q-91 -72 -218 -72h-20q-308 0 -308 294z" />
<glyph unicode="v" horiz-adv-x="640" d="M-11 626q0 102 97 102q79 0 104 -72l114 -328l107 317q15 45 44.5 66.5t66.5 21.5q43 0 71 -28.5t28 -72.5q0 -32 -11 -61l-199 -516q-17 -64 -107 -64q-78 0 -105 64l-125 295l-74 211q-11 31 -11 65z" />
<glyph unicode="w" horiz-adv-x="1038" d="M-9 632q0 41 25.5 69.5t66.5 28.5q76 0 103 -85l106 -328l108 308q22 62 43 83q27 27 60 27q73 0 105 -99l107 -328l96 348q11 39 41 59t66 20q41 0 69 -27t28 -68v-21q-1 -7 -3 -16l-161 -485q-42 -127 -149 -127q-39 0 -69 25q-34 26 -47 70l-83 275l-94 -285 q-8 -36 -46 -61.5t-76 -25.5q-64 0 -112 78l-103 283l-76 241q0 7 -2.5 21t-2.5 20z" />
<glyph unicode="x" horiz-adv-x="707" d="M-5 92q0 39 26 77l189 214l-159 157q-30 30 -30 70q0 45 33 80.5t78 35.5q46 0 78 -37l129 -149l124 158q25 32 66 32q45 0 80.5 -32t35.5 -77q0 -48 -35 -81l-147 -167l189 -204q32 -26 32 -71q0 -43 -38.5 -81t-81.5 -38q-33 0 -47 25l-178 208l-172 -198 q-19 -32 -64 -32q-43 0 -75.5 33.5t-32.5 76.5z" />
<glyph unicode="y" horiz-adv-x="707" d="M0 632q0 96 94 96q90 0 105 -72l114 -339l141 328q27 83 100 83q42 0 70 -30.5t28 -72.5q0 -40 -10 -64l-329 -779q-19 -45 -44 -63q-30 -21 -63 -21q-40 0 -71.5 29t-31.5 69q0 2 11 40l96 219q-9 48 -67 185q-11 18 -49 110l-83 221q-5 17 -6 26q-5 22 -5 35z" />
<glyph unicode="z" horiz-adv-x="640" d="M-11 76q0 27 11 53l293 391h-190q-108 0 -108 90q0 51 41 82q38 29 91 29h400q35 0 59 -27t24 -62q0 -27 -9 -41l-308 -399h234q41 0 69.5 -29.5t28.5 -70.5q0 -88 -98 -88h-485q-53 0 -53 72z" />
<glyph unicode="{" horiz-adv-x="472" d="M-11 383q0 53 27 68q15 9 78 15q26 30 26 132q0 28 -5 105q-5 67 -3 104l2 41q27 147 179 147h98q66 0 66 -64q0 -63 -46 -63q-54 0 -73 -6q-34 -11 -34 -46v-296q0 -104 -114 -126q114 -37 114 -118v-294q0 -74 79 -74h18q56 0 56 -57t-56 -57h-171q-43 0 -74 53 q-24 43 -29 92q-2 105 -4 211q-5 163 -29.5 167t-63.5 12q-41 12 -41 54z" />
<glyph unicode="|" horiz-adv-x="304" d="M51 98v853q0 106 86 106q37 0 60.5 -28.5t23.5 -66.5v-876q0 -38 -23.5 -64.5t-60.5 -26.5q-40 0 -64 32q-22 29 -22 71z" />
<glyph unicode="}" horiz-adv-x="472" d="M-9 920q0 63 51 63q150 0 202 -18q84 -29 84 -128v-317q13 -54 44 -65q39 -4 59 -9q28 -4 28 -55q0 -65 -37 -74l-36 -5q-50 -8 -58 -69v-315q-10 -74 -54 -111q-25 -21 -75 -35h-157q-47 0 -47 60q0 57 47 66h72q41 7 41 103q0 23 -3.5 65.5t-3.5 62.5q-1 131 6 155 q18 63 108 89q-37 16 -73 32q-45 38 -45 144q0 5 2 16t2 16v28q0 199 -21 218q-28 25 -39 25q-5 0 -17.5 -2.5t-19.5 -2.5q-60 0 -60 63z" />
<glyph unicode="~" horiz-adv-x="839" d="M55 345q0 37 21 80.5t71.5 73.5t99.5 30h18q44 -9 196 -69q63 -25 88 -25q28 0 76.5 38.5t67.5 38.5l16 -4q39 -10 39 -77q0 -62 -47 -116q-58 -67 -137 -62l-35 2q-28 2 -68 18q-144 59 -176 68q-4 1 -25 2q-29 0 -80.5 -41.5t-70.5 -41.5q-33 0 -47 43q-7 19 -7 42z " />
<glyph unicode="&#xa1;" horiz-adv-x="717" d="M14 76v489q0 115 91 189q85 70 203 70q132 0 211 -54q92 -63 92 -189v-495q0 -34 -45 -63q-41 -25 -78 -25l-2 4q-36 0 -67 22q-35 24 -35 59v472q0 65 -73 65q-74 0 -74 -79v-469q0 -75 -117 -75q-34 0 -68 22q-38 25 -38 57z" />
<glyph unicode="&#xa2;" horiz-adv-x="722" d="M14 691v5q0 55 37 89.5t93 34.5q86 0 143 -51q60 -54 60 -139v-8q0 -51 -29 -97q-64 -100 -64 -159l3 2l2 -114q1 -60 67 -60q65 0 65 75v465q0 37 38 63q33 23 72 23q43 0 78.5 -28.5t35.5 -70.5v-492q0 -115 -91 -181q-81 -58 -201 -58h-17q-87 0 -176 52 q-102 60 -102 141v224q0 20 62 75q30 27 30 56l-2 5v40q0 19 -39 25q-65 11 -65 83z" />
<glyph unicode="&#xa3;" horiz-adv-x="729" d="M20 699v32q0 41 9 59q15 30 54 30q29 0 47 -20q9 -10 27 -29q17 12 37 26q24 17 46 17h7q28 0 55 -17q29 -20 29 -47v-155q0 -38 -22 -77q-50 -89 -50 -116v-133q0 -72 74 -72q65 0 65 85v452q0 37 26.5 63.5t63.5 26.5h28q42 0 71.5 -28t29.5 -70v-484q0 -98 -93 -177 q-88 -75 -188 -75h-5q-95 0 -195 76q-108 82 -108 177v123q0 38 53 93.5t53 66.5v69q0 30 -62 30q-24 0 -39 26q-13 23 -13 48z" />
<glyph unicode="&#xa4;" horiz-adv-x="736" d="M25 91v520q0 106 103 165q86 48 200 48q118 0 206 -49q107 -59 107 -169v-505q0 -106 -111 -106h-9q-109 0 -109 100v458q0 64 -79 64q-31 0 -56 -16q-28 -19 -28 -48v-139q39 0 74 -23q40 -25 40 -62q0 -83 -104 -104v-139q0 -89 -106 -89q-49 0 -85 22q-43 26 -43 72z " />
<glyph unicode="&#xa5;" horiz-adv-x="1094" d="M25 106v481q0 119 94 180q79 52 204 52h5q42 0 85 -22q15 -8 78 -49q73 40 96 49q53 22 104 22q128 0 210 -64q89 -71 89 -195v-472q0 -90 -101 -90q-119 0 -119 88v487q0 26 -21.5 44.5t-47.5 18.5h-5q-34 0 -95 -31.5t-95 -31.5q-33 0 -90 27q-68 32 -88 37h-11 q-23 0 -46.5 -17.5t-23.5 -39.5v-353q0 -46 77 -46q65 0 67 34l12 167q5 76 73 76h139q27 0 47 -26.5t20 -54.5v-9q-11 -82 -67 -99l-23 -172q-13 -100 -150 -100h-248q-169 0 -169 109z" />
<glyph unicode="&#xa6;" horiz-adv-x="810" d="M23 81v307q0 80 97 93v146q-76 8 -76 97q0 42 31.5 68.5t74.5 26.5h7q41 0 83 -36q66 41 88 41q89 0 89 -96q0 -77 -76 -89v-368q0 -63 62 -63q6 0 9 -3q64 0 64 66v458q0 90 114 90q44 0 75 -22q36 -24 36 -66v-514q0 -90 -113 -158q-98 -59 -190 -59q-120 0 -220 81 q-33 -83 -79 -83l-4 4q-72 0 -72 79z" />
<glyph unicode="&#xa7;" horiz-adv-x="523" d="M35 83v6q0 98 79 98q54 0 66 6q19 10 19 49v376q-79 28 -79 115l-2 10q0 31 21.5 53.5t52.5 22.5h139q90 0 90 -104v-565q0 -72 -45 -115.5t-117 -43.5h-141q-83 0 -83 92z" />
<glyph unicode="&#xa8;" horiz-adv-x="701" d="M30 641q0 83 74 129q61 50 175 50h45q118 0 190 -60q78 -64 78 -179v-507q0 -88 -116 -88q-44 0 -77 20q-38 24 -38 66v111h-148q-41 0 -70.5 27.5t-29.5 68.5q0 89 92 89h158v185q0 69 -62 69q-53 0 -77 -49q-46 -25 -95 -25q-72 0 -90 39q-9 33 -9 54z" />
<glyph unicode="&#xa9;" horiz-adv-x="881" d="M39 370q0 43 26.5 73.5t68.5 30.5h9q193 0 193 -118v-95q0 -67 79 -76q39 5 54 15q22 15 22 55v300q0 66 -84 67l-244 2q-103 1 -103 97q0 40 25 69t65 29h421q146 0 146 -123v-234h-6q4 -5 8 -9q56 -30 56 -60v-302q0 -91 -79 -91q-63 0 -99 71q-92 -74 -188 -74h-7 q-107 0 -194 62q-100 72 -100 186v21q-69 27 -69 104z" />
<glyph unicode="&#xaa;" horiz-adv-x="724" d="M30 243v476q0 43 38 74q35 29 80 29h5q42 0 73 -28.5t31 -69.5l4 -460q1 -61 67 -61q63 0 63 66v106q0 31 -28 46q-69 38 -69 98l4 6q0 84 56 93l30 2q12 4 12 49v71q0 38 40 60q34 19 75 19q35 0 68 -24q36 -27 36 -61v-119q0 -68 -55 -90q51 -26 51 -100v-193 q0 -101 -89 -169q-82 -63 -186 -63q-116 0 -206 62q-100 69 -100 181z" />
<glyph unicode="&#xab;" horiz-adv-x="789" d="M28 722q0 104 101 104q40 0 88 -41q30 20 41 26q26 15 40 15h5q100 0 100 -100q0 -90 -70 -115l-2 -369q0 -48 62 -48q74 0 74 60v163q-92 47 -92 85q0 5 3 11l4 5q0 34 27 66l53 63v87q0 41 38 68q35 24 78 24q41 0 75 -25q38 -27 38 -67v-107q0 -68 -76 -81 q72 -18 72 -74v-238q0 -111 -99 -183q-89 -65 -204 -65q-117 0 -198.5 79.5t-81.5 196.5v349l-54 42q-22 24 -22 69z" />
<glyph unicode="&#xac;" horiz-adv-x="1104" d="M35 118v463q0 119 80 183q74 60 196 60h8q129 0 211 -49q100 -60 100 -180v-321q0 -30 22 -56t52 -26q67 0 67 79v453q0 44 34 73q31 27 76 27h5q107 0 107 -98v-474q0 -91 -74 -168q-82 -86 -197 -86l-11 -1q-113 0 -209 80q-11 -18 -34 -53q-19 -27 -47 -27 q-30 0 -56.5 21.5t-26.5 50.5v368q0 62 65 62v86q0 69 -75 69q-69 0 -69 -80v-374q55 -27 55 -59l-3 -23q0 -49 -43 -85t-93 -36q-53 0 -95 33q-45 36 -45 88z" />
<glyph unicode="&#xad;" horiz-adv-x="890" d="M44 461q0 44 25 77t68 33h617q42 0 72.5 -34t30.5 -76q0 -43 -24 -72q-26 -32 -68 -32h-628q-42 0 -67.5 30.5t-25.5 73.5z" />
<glyph unicode="&#xae;" horiz-adv-x="812" d="M2 -195q0 96 81 96h301q17 0 31 4q17 0 17 19v636q0 64 -46 69h-11q-59 0 -59 -71v-433q0 -54 -54 -93q-49 -35 -105 -35l-4 3q-130 0 -130 99q0 51 63 107v379q0 104 99 174q89 63 197 63q112 0 194 -61q91 -68 91 -176v-729q0 -71 -45.5 -111.5t-117.5 -40.5h-427 q-75 0 -75 101z" />
<glyph unicode="&#xaf;" horiz-adv-x="789" d="M12 -210q0 75 89 112q66 27 153 27h10q28 0 106 -39q38 -19 63 -19l11 -2q49 0 49 60l2 11v618q0 3 1 9.5t1 9.5q0 62 -57 62h-15q-71 0 -71 -84v-442q0 -55 -58 -86q-48 -25 -108 -25q-137 0 -137 89v6q0 39 34 71q16 15 49 45v386q0 107 97 168q83 52 197 52 q121 0 203 -57q93 -66 93 -182v-756q-16 -128 -122 -128h-239q-29 0 -71 29q-20 14 -33 14q-20 0 -56 -24.5t-57 -24.5h-5q-50 0 -87 24q-42 28 -42 76z" />
<glyph unicode="&#xb0;" horiz-adv-x="754" d="M37 187q0 75 76 75h149q37 0 74 -60q18 -29 41 -29q60 0 60 86v8q0 26 -5.5 33.5t-29.5 7.5h-189q-125 0 -125 213q0 141 81 221t222 80h18q76 0 146 -40q82 -47 82 -118v-10q0 -98 -99 -98l-7 -1q-40 0 -95 42q-26 20 -50 20q-59 0 -72 -59q0 -78 58 -76l153 4 q47 1 89.5 -47t40.5 -106l-7 -176q-2 -59 -46 -106q-52 -56 -107 -56h-317q-15 0 -24 26q-20 59 -41 63q-76 15 -76 103zM52 -282q0 66 70 101q56 28 127 28q23 0 62 -20.5t57 -20.5h69q5 10 16 30q17 30 60 30q51 0 89.5 -37t38.5 -88v-8q-7 -49 -60 -84q-48 -33 -100 -33 q-38 0 -110.5 28t-103.5 28h-10q-20 0 -44 -10q-60 -25 -75 -25q-26 0 -56 27.5t-30 53.5z" />
<glyph unicode="&#xb1;" horiz-adv-x="812" d="M40 717v9q0 94 94 94q22 0 39 -11q21 -18 35 -29q16 16 25 24q18 16 38 16q42 0 70 -54q20 13 61 38q35 20 79 20h10q83 0 149 -54q71 -57 71 -138v-533q0 -45 -26.5 -76t-70.5 -31q-8 1 -12 1l-5 4q-62 0 -89 21.5t-27 80.5v431q0 31 -19 56t-50 25q-69 0 -69 -81v-431 q0 -99 -111 -99q-49 0 -80 27q-34 29 -34 77v521q-78 29 -78 92z" />
<glyph unicode="&#xb2;" horiz-adv-x="1439" d="M67 97v484q0 89 90 165q86 74 176 74q113 0 195 -70q74 72 168 72q99 0 185 -67q93 -71 93 -168v-357q0 -55 76 -64l4 -3q67 0 67 67v483q0 101 106 101h6q108 0 108 -99v-498q0 -69 -84 -145q-93 -84 -203 -84h-6q-85 0 -204 79q-12 -15 -35.5 -44.5t-42.5 -29.5l-14 -2 q-63 0 -63 61v338q0 47 65 55v154q0 51 -57 51q-25 0 -67.5 -47.5t-67.5 -47.5h-85q-27 12 -60 56q-27 36 -61 36q-67 0 -67 -74v-339q0 -31 34 -46l5 -3q67 0 67 57q0 20 -26 52t-26 62v17q0 79 53 79h154q33 0 59 -43q23 -38 23 -73q0 -8 -5 -38l-71 -222q-13 -42 -39 -57 q-31 -19 -89 -19h-243q-118 0 -118 97z" />
<glyph unicode="&#xb3;" horiz-adv-x="1195" d="M49 148v452q0 91 99 159q90 61 185 61h5q109 0 200 -59q103 -68 103 -171v-323q0 -75 76 -75l9 3q72 0 72 66v491q0 68 90 68h24q108 -11 108 -74v-242q0 -4 40.5 -34t40.5 -53v-331q0 -84 -79 -84q-34 0 -59 23q-15 14 -38 51q-66 -41 -99 -56q-53 -23 -109 -23h-9 q-117 0 -200 65q-89 71 -89 185v309q0 66 -70 66q-25 0 -47 -18.5t-22 -43.5v-360q43 0 73.5 -25.5t30.5 -68.5v-7q0 -52 -48 -79q-40 -23 -96 -23h-11q-66 0 -121 41q-59 45 -59 110z" />
<glyph unicode="&#xb4;" horiz-adv-x="721" d="M35 89v499q0 105 91 172q82 60 191 60h7q113 0 199 -59q97 -66 97 -174v-506q0 -42 -33 -68.5t-76 -26.5h-9q-44 0 -76 25q-35 28 -35 70v486q0 51 -68 51q-66 0 -66 -51v-398q79 -11 79 -88v-10q-8 -85 -128 -85q-59 0 -111 26q-62 31 -62 77z" />
<glyph unicode="&#xb5;" horiz-adv-x="1057" d="M46 131v464q0 100 86 166q79 61 182 61h5q37 0 92 -31q71 -40 90 -46l62 40q65 39 110 39h11q96 0 179 -66q92 -73 92 -173v-523q0 -67 -104 -67q-62 0 -83 11q-27 14 -27 59v516q0 58 -54 58q-29 0 -88.5 -45.5t-89.5 -45.5q-43 0 -94.5 43t-73.5 43q-72 0 -72 -63v-328 q0 -47 50 -51l56 -4q44 -3 44 62q0 18 -56 66q-27 23 -27 45q0 95 83 103h157q61 0 61 -54v-146l-66 -192q-25 -72 -113 -72h-273q-60 0 -99.5 36t-39.5 95z" />
<glyph unicode="&#xb6;" horiz-adv-x="731" d="M34 123v701h436q162 0 162 -181v-560q0 -86 -114 -86q-115 0 -115 84v463q0 67 -54 67h-82v-398q86 0 86 -99v-5q0 -109 -145 -109q-66 0 -115 28q-59 34 -59 95z" />
<glyph unicode="&#xb7;" horiz-adv-x="754" d="M35 77v647q0 44 38 71q35 25 80 25q73 0 114 -72q94 71 191 71q60 0 118 -35q74 -45 74 -117v-583q0 -84 -124 -84q-41 0 -73 24t-32 64v448q0 88 -80 88q-31 0 -55 -21.5t-24 -52.5v-467q0 -37 -30.5 -60t-68.5 -23l-13 -3q-39 0 -74 20q-41 24 -41 60z" />
<glyph unicode="&#xb8;" horiz-adv-x="743" d="M40 58v127q0 55 83 55h39q23 -3 63 -29q37 -24 54 -24l87 1q46 1 46 34v47q0 34 -44 34h-200q-41 0 -76 25q-38 28 -38 68v221q0 105 102 161q83 46 197 46q106 0 178 -35q94 -46 94 -142v-10q0 -81 -114 -81l-5 -1q-35 0 -85 30t-63 30h-15q-61 0 -61 -69q0 -45 65 -45 h159q56 0 94.5 -36.5t38.5 -92.5v-243q0 -138 -148 -138h-338q-113 0 -113 67z" />
<glyph unicode="&#xb9;" horiz-adv-x="800" d="M35 220v513q0 87 108 87h10q106 0 106 -84v-438q0 -76 69 -83l3 -2q31 0 53.5 26.5t22.5 58.5v435q0 87 106 87h12q41 0 70.5 -23.5t29.5 -63.5v-232q71 0 71 -80v-330q0 -36 -25 -65.5t-60 -28.5q-33 1 -93 70q-104 -65 -215 -65q-105 0 -182 55q-86 62 -86 163z" />
<glyph unicode="&#xba;" horiz-adv-x="731" d="M39 255v478q0 41 41 67q35 22 78 22h10q41 0 73 -24.5t32 -64.5v-456q0 -74 60 -74l10 -3q60 0 60 66l-1 472q0 84 97 84h12q122 0 121 -89l-5 -491q-1 -122 -88 -191q-81 -63 -206 -63q-111 0 -200 77q-94 81 -94 190z" />
<glyph unicode="&#xbb;" horiz-adv-x="743" d="M35 240v508q0 74 120 74h7q100 0 100 -82v-467q0 -83 78 -83l3 4q69 0 69 75v705q0 46 33 73t81 27q113 0 113 -109v-752q0 -110 -100 -171q-84 -51 -201 -51q-109 0 -202 69q-101 74 -101 180z" />
<glyph unicode="&#xbc;" horiz-adv-x="1067" d="M39 243v478q0 48 16 68q25 31 98 31h124q91 0 91 -86q0 -44 -52 -71t-52 -57v-342q0 -40 16 -52.5t58 -12.5q40 0 54 10q20 14 20 60v452q0 103 104 103q41 0 71 -27t30 -68v-452q0 -45 15 -61.5t59 -16.5q38 0 48 18q7 12 7 54v460q0 84 103 93q119 0 119 -100v-516 q0 -103 -74 -162q-68 -55 -173 -55h-10q-74 0 -198 63q-112 -63 -196 -63h-11q-107 0 -187 73t-80 179z" />
<glyph unicode="&#xbd;" horiz-adv-x="1092" d="M71 249v447q0 63 55 98q47 30 114 30h7q123 0 123 -84q0 -43 -37 -65.5t-37 -45.5v-358q0 -28 19.5 -49.5t47.5 -21.5q67 0 67 67l-2 443q0 46 28.5 77.5t74.5 31.5q106 0 106 -104v-466q0 -61 52 -61l8 4q68 0 68 58v706q0 40 34 65q31 21 73 21q41 0 73 -22 q36 -25 36 -64v-722q0 -95 -84.5 -169.5t-181.5 -74.5q-104 0 -189 61q-101 -61 -170 -61q-5 3 -7 3q-108 0 -193 74.5t-85 181.5z" />
<glyph unicode="&#xbe;" horiz-adv-x="1103" d="M64 243v503q0 33 43 55q36 18 73 18q111 0 111 -74v-478q0 -67 65 -67l7 3q70 0 70 79v454q0 38 36 64q32 24 72 24q43 0 74 -22q35 -25 35 -66v-469q0 -64 67 -64q53 0 53 68v450q0 99 116 99q46 0 78 -24q34 -27 34 -72v-488q0 -96 -80 -167.5t-177 -71.5 q-62 0 -131 34q-26 13 -67 34q-30 -15 -89 -44q-54 -24 -119 -24q-93 0 -182 77t-89 169z" />
<glyph unicode="&#xbf;" horiz-adv-x="1092" d="M54 237v499q0 42 40 66q34 20 79 20q113 0 113 -81v-464q0 -64 61 -64q58 0 58 56v459q0 42 32 69q29 25 72 25h4q46 0 77 -24q35 -26 35 -70v-439q0 -76 71 -77q65 -1 65 75v693q0 79 109 79q113 0 113 -87v-757q0 -87 -95 -154q-87 -61 -177 -61h-7q-72 0 -174 60 q-109 -57 -197 -57l-5 -3q-95 0 -182 70q-92 74 -92 167z" />
<glyph unicode="&#xc0;" horiz-adv-x="789" d="M51 83l3 14q0 30 37.5 55.5t37.5 42.5v400q0 111 92 173q80 54 196 54h6q118 0 188 -57q76 -61 76 -175v-511q0 -38 -42 -60q-34 -17 -76 -17q-85 0 -85 81v451q0 27 -16 50q-18 27 -43 27q-69 0 -69 -67l2 -438q0 -55 -54 -85q-44 -24 -104 -24l-10 5q-44 0 -86 19 q-53 23 -53 62z" />
<glyph unicode="&#xc1;" horiz-adv-x="766" d="M42 65v319q0 85 62 85v262q0 35 40 63q37 25 74 25q110 0 110 -85v-467q0 -67 56 -67q60 0 60 62v476q0 81 97 81h14q109 0 109 -83v-511q0 -108 -85 -174q-78 -60 -189 -60h-12q-104 0 -188 81q-26 -40 -39 -54q-25 -27 -50 -27t-42 24t-17 50z" />
<glyph unicode="&#xc2;" horiz-adv-x="731" d="M40 230v198q0 56 98 97q-18 10 -54 31q-32 21 -32 46v134q0 40 42 64q36 20 79 20q116 0 116 -62v-106q6 -11 32 -41q45 -52 45 -90t-37 -73q-48 -46 -56 -62v-132q0 -54 63 -54q67 0 67 59l-1 474q0 39 33 64q31 22 71 22h25q99 0 99 -95v-482q0 -115 -95 -185 q-85 -64 -204 -64q-116 0 -198 60q-93 66 -93 177z" />
<glyph unicode="&#xc3;" horiz-adv-x="556" d="M40 578l2 5q0 103 74 170t178 67h14q46 0 84 -20q47 -25 47 -67q0 -90 -85 -90q-29 0 -54.5 -20.5t-25.5 -49.5l3 -2q0 -46 47 -105q30 -36 88 -108q48 -62 48 -116v-8q0 -100 -89 -168q-82 -64 -184 -64q-138 0 -138 97l3 7q0 53 83 83.5t83 52.5v13q-6 31 -126 198 q-52 72 -52 125z" />
<glyph unicode="&#xc4;" horiz-adv-x="743" d="M40 129v456q0 112 92 177q81 58 197 58q121 0 207 -52q103 -62 103 -176v-723q0 -46 -37 -73q-33 -25 -81 -25q-104 0 -104 100v680q0 64 -68 64q-85 0 -85 -72v-363q92 -13 92 -79v-12q0 -94 -151 -94q-55 0 -108 39q-57 42 -57 95z" />
<glyph unicode="&#xc5;" horiz-adv-x="731" d="M28 84v159q0 73 88 123q56 25 169 77q96 46 106 110v9q0 49 -60 49l-5 4q-23 0 -50 -18q-63 -42 -84 -42l11 -9q-46 0 -85 27q-44 30 -44 74v10q0 80 89 126q72 37 160 37h5q110 0 199 -53q105 -62 105 -165v-503q0 -43 -37.5 -71t-81.5 -28l-6 3q-105 0 -105 81v203 q0 7 -24 7q-32 0 -75 -22q-49 -26 -49 -54v-139q0 -79 -115 -79q-33 0 -70 25q-41 27 -41 59z" />
<glyph unicode="&#xc6;" horiz-adv-x="789" d="M47 71q0 26 27.5 50.5t27.5 38.5v440q0 100 84 163q76 57 179 57h31q111 0 194 -46q101 -56 101 -159v-793q0 -84 -115 -84q-118 0 -118 84v733q0 53 -70 53q-55 0 -55 -65l-2 -448q0 -109 -146 -109q-138 0 -138 85z" />
<glyph unicode="&#xc7;" horiz-adv-x="685" d="M35 724l4 9q0 91 123 91h16q184 0 305 -127q109 -114 109 -257v-7q0 -166 -117 -301q-123 -141 -287 -141h-10q-51 0 -85.5 30.5t-34.5 80.5l-4 2q0 73 90 95l6 -2q95 0 158.5 65t63.5 161q0 92 -78 148q-69 49 -165 49h-9q-31 7 -58 40t-27 64z" />
<glyph unicode="&#xc8;" horiz-adv-x="731" d="M52 71v546q0 81 77 146q74 61 157 61h10q73 0 114 -35v191q0 38 36 63q32 23 72 23q42 0 75 -20q39 -23 39 -63v-907q0 -36 -39 -57q-31 -17 -70 -17q-41 0 -74 19q-39 22 -39 60v477q0 59 -72 59h-7q-62 0 -62 -54v-142q92 -36 92 -98q0 -35 -27 -63l-60 -42v-147 q0 -69 -105 -69q-36 0 -72 17q-45 20 -45 52z" />
<glyph unicode="&#xc9;" horiz-adv-x="743" d="M44 242v482q0 43 33 70q30 25 74 25q116 0 116 -83v-470q0 -72 74 -72t74 67v158q-43 0 -72 28.5t-29 71.5q0 70 89 92v129q0 79 108 79q113 0 113 -74v-121q35 -21 44 -27q36 -26 36 -66v-5q0 -103 -61 -103l-4 2v-173q0 -116 -73.5 -185.5t-190.5 -69.5h-44 q-113 0 -196 65q-91 71 -91 180z" />
<glyph unicode="&#xca;" horiz-adv-x="721" d="M39 317q0 67 86 107q54 22 161 67q87 38 87 92q0 34 -51 34h-30q-28 0 -91 -55q-30 -26 -58 -26l-5 -5q-41 0 -66.5 32t-25.5 74q0 74 89 131q79 51 157 51h9q8 -1 19 0l20 2q16 0 33 -11l2 84q2 76 99 76h8q129 0 129 -95v-781q0 -94 -105 -94q-118 0 -118 89v202 q0 37 -30 37q-18 0 -72 -34q-29 -18 -29 -60v-163q0 -71 -104 -71h-5q-108 0 -108 94z" />
<glyph unicode="&#xcb;" horiz-adv-x="729" d="M34 84v668q0 72 116 72q107 0 107 -72v-209q105 0 164 -13q209 -46 209 -268v-191q0 -28 -43 -51q-37 -19 -68 -19q-9 1 -13 1q-99 9 -99 75v219q0 69 -48 86q-7 4 -31 4q-44 0 -61 -3q-6 0 -17 -3v-306q0 -27 -37 -51.5t-65 -24.5q-32 0 -71 27q-43 29 -43 59zM345 696 l2 5q0 53 39 85.5t93 32.5q55 0 92 -34.5t37 -88.5q0 -48 -38.5 -80.5t-87.5 -32.5q-127 0 -137 113z" />
<glyph unicode="&#xcc;" horiz-adv-x="1092" d="M69 222v516q0 32 41 58q37 23 71 23h4q109 0 109 -73v-477q0 -66 65 -66q85 0 85 64v459q0 93 106 93q97 0 97 -93v-457q0 -72 57 -72h6q65 0 65 72v522q0 78 -34 78h-56q-25 0 -43 19.5t-18 44.5l1 6q0 57 49 56l101 -3q23 -1 42 18q42 41 69 44q102 0 102 -73 q-2 -20 -57 -62q20 -24 40 -47q21 -29 21 -62v-607q0 -94 -98 -152q-82 -49 -175 -49l-18 -2q-83 0 -167 65q-85 -65 -189 -65h-14q-88 0 -172 66q-90 71 -90 156z" />
<glyph unicode="&#xcd;" horiz-adv-x="951" d="M40 345q0 52 26 98q31 54 80 54h212q98 0 98 -104q0 -34 -28 -60.5t-62 -26.5h-97q67 -112 171 -112l12 3q89 0 139 64q46 58 46 149v5q0 207 -186 207q-26 0 -84.5 -27.5t-92.5 -27.5q-45 0 -83 27q-41 30 -41 73l3 2q0 66 102 111q91 40 196 40q165 0 286.5 -124 t121.5 -289q0 -176 -132 -297q-120 -110 -269 -110q-160 0 -283 91q-135 99 -135 254z" />
<glyph unicode="&#xce;" horiz-adv-x="951" d="M46 326q0 158 111 158h186q41 0 73 -21q36 -24 36 -63v-4q0 -98 -89 -98h-77q0 -44 58 -71q46 -21 96 -21l11 2q181 0 181 217l-2 5q0 86 -43 140q-47 60 -131 60h-5q-39 0 -120 -46t-113 -46l-3 3q-36 0 -68.5 28t-32.5 63l2 5q0 86 117 139q98 44 212 44h11 q41 0 93 -19q19 -7 81 -36v198q0 72 101 72h28q85 0 85 -61v-631q0 -177 -121 -265q-106 -78 -290 -78q-141 0 -259 91q-128 99 -128 235z" />
<glyph unicode="&#xcf;" horiz-adv-x="650" d="M42 715l2 9q0 40 27.5 67.5t67.5 27.5q57 0 113 -66q27 -32 59 -32q24 0 31 14q2 3 7 38q15 57 98 57q93 -14 99 -72v-689q0 -79 -113 -79q-116 0 -116 82v437h-85q-83 0 -136.5 61t-53.5 145z" />
<glyph unicode="&#xd0;" horiz-adv-x="428" d="M60 200q0 44 31 74t75 30q45 0 76 -29.5t31 -74.5t-31 -77t-76 -32t-75.5 32t-30.5 77zM60 574q0 47 32 80t79 33t81 -33t34 -80q0 -48 -33.5 -81t-81.5 -33q-49 0 -80 32.5t-31 81.5z" />
<glyph unicode="&#xd1;" d="M-373 1034l1 10q0 120 115 120h5q69 0 97 -70h160q34 0 59 -21t25 -55q0 -88 -72 -88h-294q-96 0 -96 104z" />
<glyph unicode="&#xd2;" horiz-adv-x="465" d="M42 724q0 95 78 95h122q119 0 119 -120v-620q0 -82 -102 -82q-39 0 -69 19q-35 22 -35 58v521q0 22 -56.5 51t-56.5 78z" />
<glyph unicode="&#xd3;" horiz-adv-x="477" d="M-374 1044q0 48 30.5 79t78.5 31q46 0 76.5 -31.5t30.5 -77.5q0 -42 -27 -73q-31 -35 -82 -35q-46 0 -76.5 30.5t-30.5 76.5zM42 724q0 95 78 95h122q119 0 119 -120v-620q0 -82 -102 -82q-39 0 -69 19q-35 22 -35 58v521q0 22 -56.5 51t-56.5 78z" />
<glyph unicode="&#xd4;" d="M-758 1041q0 102 103 102h430q87 0 87 -86v-5q0 -99 -87 -99h-434q-99 0 -99 88z" />
<glyph unicode="&#xd5;" d="M-765 1041q0 39 20 66q23 31 60 31h308q33 82 100 82q127 0 127 -124v-9q0 -138 -74 -138h-461q-31 0 -55.5 30t-24.5 62z" />
<glyph unicode="&#xd6;" d="M-775 1066q17 74 81 82h259q49 46 72 61q37 24 76 24q61 0 105 -37t44 -97q0 -52 -28 -93q-32 -46 -81 -46h-449q-79 0 -79 106z" />
<glyph unicode="&#xd7;" d="M-734 1064q0 30 22.5 53t52.5 23h129q26 49 76 49h9q24 0 48 -16q11 -7 44 -35h47q30 51 74 51q86 0 86 -60v-109q0 -60 -84 -60h-425q-78 0 -78 99z" />
<glyph unicode="&#xd8;" d="M-356 -279q0 39 34 63q30 21 70 21h9q99 -16 99 -74v-143q0 -76 -105 -76q-107 0 -107 90v119z" />
<glyph unicode="&#xd9;" d="M-685 -234q0 38 30.5 64.5t69.5 26.5q44 0 69 -23q7 -8 44 -56q10 -34 18 -52q24 -52 51 -52q70 0 70 62q15 35 24 51q31 51 66 51q111 0 123 -109q0 -109 -91 -178q-84 -64 -196 -64h-5q-101 0 -171 72q-55 56 -81 134q-7 24 -21 73z" />
<glyph unicode="&#xda;" d="M-344 -269q0 43 28 77q34 31 79 31q44 0 74 -30t30 -74q0 -47 -30.5 -77t-77.5 -30q-44 0 -73.5 27.5t-29.5 75.5z" />
<glyph unicode="&#xdb;" d="M-1042 1007q0 101 101 101h430q88 0 88 -86v-5q0 -98 -88 -98h-433q-98 0 -98 88z" />
<glyph unicode="&#xdc;" d="M-1037 1020q0 96 81 96h308q30 84 98 84q129 0 129 -126v-8q0 -140 -76 -140h-459q-31 0 -56 31t-25 63z" />
<glyph unicode="&#xdd;" d="M-1059 1029q19 75 81 82h259q49 46 72 61q37 24 76 24q61 0 104 -35q46 -38 46 -97q0 -52 -28 -94q-32 -47 -81 -47h-450q-79 0 -79 106z" />
<glyph unicode="&#xde;" d="M-1037 1027q0 32 22.5 54t54.5 22h127q30 49 77 49h8q24 0 49 -16q14 -9 45 -35h44q34 51 76 51q87 0 87 -58v-111q0 -60 -84 -60h-425q-79 0 -79 99z" />
<glyph unicode="&#xdf;" horiz-adv-x="771" d="M39 72v747q13 98 79 100l166 6v119h104v-119q113 0 183 -63t70 -175q0 -129 -100 -190q79 -13 124 -87q39 -66 39 -151q-21 -200 -240 -249q-45 -10 -76 -10v-120h-104v120l-166 3q-79 1 -79 69zM249 183h153q41 0 62 9q37 16 37 63v18q0 31 -18 60q-21 33 -51 33h-183 v-183zM249 555h133q55 0 55 74q0 33 -16 60q-18 32 -49 32h-123v-166z" />
<glyph unicode="&#xe0;" horiz-adv-x="372" d="M42 74v667q0 79 120 79q102 0 102 -70l-2 -681q0 -79 -109 -79q-43 0 -74 20q-37 24 -37 64z" />
<glyph unicode="&#xe1;" horiz-adv-x="685" d="M42 74v667q0 79 120 79q102 0 102 -70l-2 -681q0 -79 -109 -79q-43 0 -74 20q-37 24 -37 64zM356 76v667q0 79 120 79q102 0 102 -70l-2 -681q0 -80 -109 -80q-43 0 -75 20q-36 24 -36 65z" />
<glyph unicode="&#xe2;" horiz-adv-x="378" d="M47 89v941q0 159 171 159q170 0 170 -110v-7q0 -31 -16 -57q-19 -30 -49 -30q-46 0 -46 -55l2 -831q0 -109 -110 -109h-11q-43 0 -77 28t-34 71z" />
<glyph unicode="&#xe3;" horiz-adv-x="477" d="M-168 955q0 92 77 156q73 60 167 60q104 0 191 -52q103 -60 103 -158v-882q0 -43 -40 -68q-34 -21 -80 -21q-40 0 -68 22q-31 23 -31 62v820q0 71 -68 71h-11q-25 -4 -80 -69q-24 -29 -50 -29h-9q-36 0 -66 24q-33 25 -33 60z" />
<glyph unicode="&#xe4;" horiz-adv-x="373" d="M-111 1078l2 16l-2 5q0 84 116 84h9q111 0 166 -19q84 -29 84 -110v-971q0 -86 -120 -86q-104 0 -104 86l-1 847q0 53 -71 53h-10q-69 0 -69 95z" />
<glyph unicode="&#xe5;" horiz-adv-x="493" d="M49 724q0 95 80 95h120q137 0 137 -120v-845q0 -83 -119 -83q-39 0 -69 19q-35 22 -35 59v746q0 22 -57 51t-57 78z" />
<glyph unicode="&#xe6;" horiz-adv-x="662" d="M42 729q0 33 16 61q20 34 50 34h149q5 -4 22 -28q10 -14 15 -14h44q34 25 44 30q23 12 51 12q129 0 129 -84v-682q0 -65 -98 -65q-38 0 -69 15q-39 20 -39 54v549q-37 -21 -48 -21q-22 0 -80 31q-28 15 -59 15h-60q-30 0 -50 33q-17 28 -17 60z" />
<glyph unicode="&#xe7;" d="M-701 1054v141q0 101 153 101h375q60 0 60 -59t-50 -59h-378q-35 0 -35 -51l3 -12q0 -46 27 -46l10 3l113 37q46 0 92 -30h144q58 0 58 -49q0 -70 -125 -70q-40 0 -158 35h-15q-6 0 -43 -17.5t-71 -17.5q-50 0 -99 22q-61 28 -61 72z" />
<glyph unicode="&#xe8;" d="M-343 1398v119q0 39 33 63q29 21 70 21h8q100 -16 100 -74v-143q0 -75 -105 -75q-106 0 -106 89z" />
<glyph unicode="&#xe9;" d="M-431 1462q0 34 40 75q25 26 67 26q9 0 28 -1t29 -1h5q67 0 99 -68h158q33 0 58.5 -21.5t25.5 -53.5v-5q0 -84 -70 -84h-296q-23 0 -33 27q-3 7 -6 28q-9 -3 -19 -3q-33 0 -59.5 24t-26.5 57z" />
<glyph unicode="&#xea;" d="M-655 1363v109q0 55 56 87q47 27 106 27q26 0 58 -10l53 -16q75 28 98 28h11q74 0 106 -17q42 -22 65 -90q89 0 97 -69v-9q0 -70 -74 -70h-120q-58 0 -58 68v44q0 30 -27 30q-30 0 -30 -30v-79q0 -42 -63 -42l-9 -2q-70 0 -70 44v71q0 30 -30 30q-27 0 -27 -30v-76 q0 -39 -60 -39h-8q-53 0 -74 41z" />
<glyph unicode="&#xeb;" d="M-341 1477l3 15q8 41 19 54q16 17 55 30q12 62 84 62h17q68 -7 84 -77q28 0 51 -20t23 -48q-6 -69 -72 -90q-20 -70 -106 -70q-69 0 -86 63q-31 0 -51.5 24.5t-20.5 56.5z" />
<glyph unicode="&#xec;" d="M-377 1410l9 24q0 102 97 102h294q72 0 72 -84v-5q0 -34 -25.5 -54.5t-59.5 -20.5h-160q-28 -71 -97 -71h-5q-125 0 -125 109z" />
<glyph unicode="&#xed;" d="M-388 1055q0 46 31 78.5t77 32.5q45 0 76.5 -32t31.5 -77q0 -44 -28 -74q-30 -33 -82 -33q-46 0 -76 30t-30 75z" />
<glyph unicode="&#xee;" d="M-543 1065q0 -44 73 -67q57 -18 129 -18q58 0 110 31q20 16 39 33l-35 46q6 -6 6 -10q0 -18 -77 -38q-27 -7 -48 -7q-52 0 -52 31q0 9 5 19q19 36 44 39q17 1 48 5q52 8 104 19l-11 50q-35 7 -47 11q-32 10 -37 24q-7 49 61 58q15 2 68 2q17 0 95 -15q14 -1 28 -1l-9 71 q-27 4 -46 6q-58 7 -85 7q-78 0 -165 -21q-120 -30 -125 -83q0 -27 48 -56q38 -23 45 -23q-124 -3 -161 -89q-5 -12 -5 -24z" />
<glyph unicode="&#xef;" horiz-adv-x="1057" d="M142 410q0 248 193 358q91 51 214 51q250 0 359 -193q51 -92 51 -216q0 -246 -195 -357q-92 -53 -215 -53q-245 0 -355 194q-52 92 -52 216zM197 410q0 -157 97.5 -256t254.5 -99q211 0 309 170q45 79 45 185q0 160 -97 257t-257 97q-211 0 -307 -168q-45 -79 -45 -186z M315 410q0 103 65 168t169 65q136 0 201 -103q33 -54 33 -130q0 -139 -112 -204q-52 -30 -122 -30q-133 0 -200 106q-34 53 -34 128z" />
<glyph unicode="&#xf0;" horiz-adv-x="721" d="M35 366q0 171 67 282q81 134 241 134q277 0 277 -384q0 -159 -56 -264q-71 -134 -217 -134q-155 0 -237 108q-75 98 -75 258zM240 396l2 -8q0 -196 84 -196v-4q46 0 74 81q21 62 21 119q0 67 -22 124q-27 69 -71 69t-69 -74q-19 -56 -19 -111z" />
<glyph unicode="&#xf1;" horiz-adv-x="476" d="M40 627l2 5q0 74 72 116q60 35 140 35h5q37 0 72 -20q41 -23 41 -57v-607q0 -99 -113 -99q-106 0 -106 99v454q-20 -15 -35 -15q-30 0 -54 29t-24 60z" />
<glyph unicode="&#xf2;" horiz-adv-x="743" d="M37 86v11q7 71 89 127q88 60 172 138q121 112 121 168v11q0 84 -81 84q-36 0 -62 -20q-29 -22 -27 -50l1 -12q2 -11 16 -37.5t14 -43.5q0 -85 -81 -85l-9 1q-64 0 -104 59q-35 52 -35 119q0 104 84 174q80 66 186 66q129 0 210 -59q91 -66 91 -191v-5q0 -134 -128 -269 q-5 -5 -104 -101h146q31 0 50.5 -25t19.5 -57q0 -92 -62 -92h-428q-34 0 -56.5 27t-22.5 62z" />
<glyph unicode="&#xf3;" horiz-adv-x="627" d="M49 134v5q0 78 80 78q17 0 65 -26q24 -13 43 -13l5 2q77 0 77 72q0 71 -70 79q-74 33 -74 79q0 43 67 76q36 18 43 22q36 23 36 52q0 40 -12 54.5t-52 14.5q-14 0 -45 -10.5t-46 -10.5q-87 0 -87 76v7q0 60 61 92q50 27 115 27h11q110 0 176 -47q77 -54 77 -159v-16 q0 -89 -75 -169q74 -108 74 -192v-5q0 -99 -75 -162q-71 -60 -172 -60q-72 0 -139 31q-83 39 -83 103z" />
<glyph unicode="&#xf4;" horiz-adv-x="721" d="M32 249q0 25 5 42l131 447q33 77 112 77q85 0 85 -67v-15l-104 -363q-1 -5 -10 -21.5t-9 -20.5q0 -11 54 -11h57v113q0 76 101 76h6q86 0 86 -87v-96l4 -2q56 0 56 -94v-7q0 -74 -78 -74l8 -97q2 -28 -25 -43.5t-71 -15.5q-106 0 -109 54l-5 100h-155q-139 0 -139 105z " />
<glyph unicode="&#xf5;" horiz-adv-x="639" d="M42 132q0 39 24.5 67t62.5 28q20 0 44 -8q60 -20 70 -20q79 0 84 55q2 20 2 30q0 72 -102 72h-65q-91 0 -91 89v276q0 84 91 84h263q33 0 62 -30.5t29 -64.5q0 -95 -79 -95h-145q-25 0 -25 -30v-35q0 -25 43 -25q109 0 167 -79q53 -70 53 -182v-10q0 -244 -288 -244 q-62 0 -124 30q-76 37 -76 92z" />
<glyph unicode="&#xf6;" horiz-adv-x="754" d="M49 273q0 159 256 383q87 76 132 98q25 12 54 12q62 0 83 -19q26 -24 26 -60q0 -30 -24 -51l-109 -95q183 -83 183 -264v-6q0 -271 -314 -271h-5q-112 0 -195.5 79.5t-83.5 191.5zM262 284q0 -41 25.5 -69t66.5 -28l4 1q82 0 82 91v13q0 81 -86 81q-92 0 -92 -89z" />
<glyph unicode="&#xf7;" horiz-adv-x="696" d="M35 682q0 35 20 62t54 27h392q84 0 96 -79q0 -1 -10 -42l-328 -620q-21 -40 -109 -40q-33 0 -65.5 24.5t-32.5 57.5q0 13 6 23l266 446l4 17q0 22 -41 23l-162 4q-35 1 -60.5 28.5t-25.5 62.5z" />
<glyph unicode="&#xf8;" horiz-adv-x="685" d="M68 585q0 -8 1 -12v-48q0 -57 79 -132q-79 -86 -79 -175v-5q0 -100 69 -160q66 -56 168 -56h11q111 0 188 73q68 64 68 134v9l-4 30q-12 93 -97 152q37 44 46 57q23 33 23 76v41q0 86 -68.5 147t-155.5 61h-19q-98 0 -169 -71q-61 -61 -61 -121zM242 544q0 -72 72 -72 q70 0 70 72q0 62 -70 71q-30 4 -51 -18.5t-21 -52.5zM250 229q0 30 21.5 52t51.5 22q28 0 48 -23t20 -51q0 -69 -68 -69q-28 0 -50.5 20.5t-22.5 48.5z" />
<glyph unicode="&#xf9;" horiz-adv-x="731" d="M23 491v6q0 269 313 269h5q113 0 196 -78.5t83 -190.5l2 -4q0 -157 -256 -382q-81 -71 -129 -97q-26 -14 -54 -14q-56 0 -84 28q-27 20 -27 51q0 34 27 53l109 95q-185 80 -185 264zM232 476q8 -83 87 -83q93 0 93 89q0 99 -93 99l-5 -3q-82 0 -82 -90v-12z" />
<glyph unicode="&#xfa;" horiz-adv-x="963" d="M42 715l2 9q0 40 27.5 67.5t67.5 27.5q56 0 113 -72q27 -34 59 -34q24 0 31 15q0 1 7 38q10 56 98 56q94 -12 99 -70v-683q0 -79 -113 -79q-116 0 -116 82v430h-85q-84 0 -139 66q-51 62 -51 147zM627 717q0 103 104 103q67 0 90 -12q32 -18 38 -77v-662q0 -79 -113 -79 q-44 0 -76 19q-40 23 -40 63z" />
<glyph unicode="&#xfb;" horiz-adv-x="1791" d="M10 351q0 299 267 352q20 4 45 4q56 0 114 -25q20 -8 46 -25l-5 -153q-41 41 -133 41h-21q-8 0 -25 -2q-144 -17 -144 -170q0 -77 43 -133q46 -61 121 -61q8 0 20 1q101 8 168 86q43 49 79 142q29 74 37 74q5 0 54.5 -90.5t63.5 -90.5q10 0 51.5 90.5t57.5 90.5 q14 2 43 -64l59 -136q35 0 48 93.5t48 93.5q11 0 56 -105t79 -98q4 1 86 116q37 53 87 63q5 1 12 1q26 0 57 -22q69 -48 90 -48q11 0 22 4q17 4 31 20q3 4 31 56l51 -142q-34 -58 -96 -80q-9 -3 -29 -5q-25 0 -57 19q-72 42 -98 42q-9 0 -14 -1q-35 0 -93 -63.5t-107 -63.5 q-28 0 -57 43q-43 65 -43 84q-27 -35 -45 -56q-50 -60 -71 -71q-21 -8 -62 65q-17 30 -38 69l-51 -67q-54 -68 -64 -63q-17 8 -48 51q-12 17 -37 52q-26 -46 -52 -93q-32 -53 -66 -83q-79 -71 -190 -71q-110 0 -200 64q-97 68 -114 173q-7 43 -7 92z" />
<glyph unicode="&#xfc;" d="M-356 -415q0 33 39 52q31 15 67 15h8q99 -12 99 -62v-116q0 -59 -104 -59q-109 0 -109 72v98z" />
<glyph unicode="&#xfd;" d="M-652 -424q0 35 27 59t63 24h4q36 0 59 -21q8 -7 39 -52q9 -31 16 -46q22 -47 46 -47q63 0 63 56q13 32 22 46q28 46 59 46q101 0 111 -100q0 -97 -82 -159q-75 -56 -175 -56h-5q-92 0 -155 64q-49 49 -73 121q-6 22 -19 65z" />
<glyph unicode="&#xfe;" d="M-364 -456q0 43 28 71.5t71 28.5q40 0 70 -27q29 -32 29 -70q0 -43 -29.5 -71.5t-72.5 -28.5q-38 0 -65 25q-31 29 -31 72z" />
<glyph unicode="&#xff;" horiz-adv-x="455" />
<glyph unicode="&#x152;" horiz-adv-x="777" d="M42 168q0 74 78 74h149q36 0 73 -60q18 -29 42 -29q39 0 51 26q7 16 7 61v7q0 28 -5 40q-9 21 -35 21h-189q-125 0 -125 213q0 141 81 217.5t222 76.5h18q76 0 146 -40q82 -47 82 -118v-10q0 -96 -99 -96l-7 -3q-39 0 -81.5 31.5t-63.5 31.5q-59 0 -72 -58q0 -73 58 -71 l153 4q53 1 93 -50q37 -48 37 -103v-195q0 -59 -47.5 -108t-106.5 -55h-316q-14 0 -29 43t-36 47q-78 15 -78 103z" />
<glyph unicode="&#x153;" d="M-671 1367l5 23q0 44 27.5 73t71.5 29h294q70 0 70 -87q0 -34 -25 -56.5t-59 -22.5h-158q-34 -69 -98 -69h-5q-123 0 -123 110z" />
<glyph unicode="&#x160;" d="M-454 1076l3 14q9 41 20 54q16 16 58 31q12 62 87 62h17q73 -8 86 -76q30 0 54.5 -19.5t24.5 -49.5q-7 -73 -77 -90q-17 -72 -108 -72q-72 0 -89 65q-33 0 -54.5 23.5t-21.5 57.5z" />
<glyph unicode="&#x161;" d="M-919 1310v108q0 54 57 87q48 27 106 27q17 0 111 -25q16 6 48.5 16.5t48.5 10.5h10q72 0 106 -17q44 -22 66 -89q91 0 97 -69v-8q0 -71 -74 -71h-121q-57 0 -57 69v44q0 30 -27 30q-30 0 -30 -30v-79q0 -42 -61 -42l-11 -2q-71 0 -71 44v70q0 29 -29 29q-27 0 -27 -29 v-75q0 -39 -60 -39h-7q-55 0 -75 40z" />
<glyph unicode="&#x178;" horiz-adv-x="1127" d="M30 125v486q0 116 100 183q87 60 208 60q289 0 289 -224v-124q0 -64 40 -64h44q43 0 43 51v268q0 42 31.5 68.5t73.5 26.5h6q52 0 85 -32t33 -84v-590q0 -150 -129 -150h-372q-94 0 -94 99q0 89 82 89h231q51 0 51 44v11h-255q-58 0 -80 27q-19 23 -19 84v211 q0 74 -74 74q-62 0 -62 -56v-373q0 -12 47 -41t47 -70v-16q0 -80 -138 -80q-70 0 -122 26q-66 33 -66 96z" />
<glyph unicode="&#x192;" d="M-714 1214q0 36 40 76q26 26 72 26h26q16 -1 25 -1h5q67 0 99 -71h158q34 0 59 -21t25 -55v-4q0 -84 -72 -84h-294q-23 0 -33 27q-2 6 -7 28q-5 -2 -17 -2q-34 0 -60 24t-26 57z" />
<glyph unicode="&#x2c6;" d="M-428 1079q0 34 40 74q27 27 70 27q9 0 27 -1t27 -1h5q65 0 97 -69h159q34 0 60 -22t26 -55q0 -86 -73 -86h-294q-23 0 -33 27q-2 6 -7 27q-6 -2 -18 -2q-61 0 -81 57q-5 14 -5 24z" />
<glyph unicode="&#x2dc;" d="M-639 1361v120q0 39 33 62q29 21 70 21h10q98 -15 98 -74v-143q0 -74 -103 -74q-108 0 -108 88z" />
<glyph unicode="&#xe00;" horiz-adv-x="211" />
<glyph unicode="&#xe01;" horiz-adv-x="717" d="M14 76v489q0 115 91 189q85 70 203 70q132 0 211 -54q92 -63 92 -189v-495q0 -34 -45 -63q-41 -25 -78 -25l-2 4q-36 0 -67 22q-35 24 -35 59v472q0 65 -73 65q-74 0 -74 -79v-469q0 -75 -117 -75q-34 0 -68 22q-38 25 -38 57z" />
<glyph unicode="&#xe02;" horiz-adv-x="722" d="M14 691v5q0 55 37 89.5t93 34.5q86 0 143 -51q60 -54 60 -139v-8q0 -51 -29 -97q-64 -100 -64 -159l3 2l2 -114q1 -60 67 -60q65 0 65 75v465q0 37 38 63q33 23 72 23q43 0 78.5 -28.5t35.5 -70.5v-492q0 -115 -91 -181q-81 -58 -201 -58h-17q-87 0 -176 52 q-102 60 -102 141v224q0 20 62 75q30 27 30 56l-2 5v40q0 19 -39 25q-65 11 -65 83z" />
<glyph unicode="&#xe03;" horiz-adv-x="729" d="M20 699v32q0 41 9 59q15 30 54 30q29 0 47 -20q9 -10 27 -29q17 12 37 26q24 17 46 17h7q28 0 55 -17q29 -20 29 -47v-155q0 -38 -22 -77q-50 -89 -50 -116v-133q0 -72 74 -72q65 0 65 85v452q0 37 26.5 63.5t63.5 26.5h28q42 0 71.5 -28t29.5 -70v-484q0 -98 -93 -177 q-88 -75 -188 -75h-5q-95 0 -195 76q-108 82 -108 177v123q0 38 53 93.5t53 66.5v69q0 30 -62 30q-24 0 -39 26q-13 23 -13 48z" />
<glyph unicode="&#xe04;" horiz-adv-x="736" d="M25 91v520q0 106 103 165q86 48 200 48q118 0 206 -49q107 -59 107 -169v-505q0 -106 -111 -106h-9q-109 0 -109 100v458q0 64 -79 64q-31 0 -56 -16q-28 -19 -28 -48v-139q39 0 74 -23q40 -25 40 -62q0 -83 -104 -104v-139q0 -89 -106 -89q-49 0 -85 22q-43 26 -43 72z " />
<glyph unicode="&#xe05;" horiz-adv-x="1094" d="M25 106v481q0 119 94 180q79 52 204 52h5q42 0 85 -22q15 -8 78 -49q73 40 96 49q53 22 104 22q128 0 210 -64q89 -71 89 -195v-472q0 -90 -101 -90q-119 0 -119 88v487q0 26 -21.5 44.5t-47.5 18.5h-5q-34 0 -95 -31.5t-95 -31.5q-33 0 -90 27q-68 32 -88 37h-11 q-23 0 -46.5 -17.5t-23.5 -39.5v-353q0 -46 77 -46q65 0 67 34l12 167q5 76 73 76h139q27 0 47 -26.5t20 -54.5v-9q-11 -82 -67 -99l-23 -172q-13 -100 -150 -100h-248q-169 0 -169 109z" />
<glyph unicode="&#xe06;" horiz-adv-x="810" d="M23 81v307q0 80 97 93v146q-76 8 -76 97q0 42 31.5 68.5t74.5 26.5h7q41 0 83 -36q66 41 88 41q89 0 89 -96q0 -77 -76 -89v-368q0 -63 62 -63q6 0 9 -3q64 0 64 66v458q0 90 114 90q44 0 75 -22q36 -24 36 -66v-514q0 -90 -113 -158q-98 -59 -190 -59q-120 0 -220 81 q-33 -83 -79 -83l-4 4q-72 0 -72 79z" />
<glyph unicode="&#xe07;" horiz-adv-x="523" d="M35 83v6q0 98 79 98q54 0 66 6q19 10 19 49v376q-79 28 -79 115l-2 10q0 31 21.5 53.5t52.5 22.5h139q90 0 90 -104v-565q0 -72 -45 -115.5t-117 -43.5h-141q-83 0 -83 92z" />
<glyph unicode="&#xe08;" horiz-adv-x="701" d="M30 641q0 83 74 129q61 50 175 50h45q118 0 190 -60q78 -64 78 -179v-507q0 -88 -116 -88q-44 0 -77 20q-38 24 -38 66v111h-148q-41 0 -70.5 27.5t-29.5 68.5q0 89 92 89h158v185q0 69 -62 69q-53 0 -77 -49q-46 -25 -95 -25q-72 0 -90 39q-9 33 -9 54z" />
<glyph unicode="&#xe09;" horiz-adv-x="881" d="M39 370q0 43 26.5 73.5t68.5 30.5h9q193 0 193 -118v-95q0 -67 79 -76q39 5 54 15q22 15 22 55v300q0 66 -84 67l-244 2q-103 1 -103 97q0 40 25 69t65 29h421q146 0 146 -123v-234h-6q4 -5 8 -9q56 -30 56 -60v-302q0 -91 -79 -91q-63 0 -99 71q-92 -74 -188 -74h-7 q-107 0 -194 62q-100 72 -100 186v21q-69 27 -69 104z" />
<glyph unicode="&#xe0a;" horiz-adv-x="724" d="M30 243v476q0 43 38 74q35 29 80 29h5q42 0 73 -28.5t31 -69.5l4 -460q1 -61 67 -61q63 0 63 66v106q0 31 -28 46q-69 38 -69 98l4 6q0 84 56 93l30 2q12 4 12 49v71q0 38 40 60q34 19 75 19q35 0 68 -24q36 -27 36 -61v-119q0 -68 -55 -90q51 -26 51 -100v-193 q0 -101 -89 -169q-82 -63 -186 -63q-116 0 -206 62q-100 69 -100 181z" />
<glyph unicode="&#xe0b;" horiz-adv-x="789" d="M28 722q0 104 101 104q40 0 88 -41q30 20 41 26q26 15 40 15h5q100 0 100 -100q0 -90 -70 -115l-2 -369q0 -48 62 -48q74 0 74 60v163q-92 47 -92 85q0 5 3 11l4 5q0 34 27 66l53 63v87q0 41 38 68q35 24 78 24q41 0 75 -25q38 -27 38 -67v-107q0 -68 -76 -81 q72 -18 72 -74v-238q0 -111 -99 -183q-89 -65 -204 -65q-117 0 -198.5 79.5t-81.5 196.5v349l-54 42q-22 24 -22 69z" />
<glyph unicode="&#xe0c;" horiz-adv-x="1104" d="M35 118v463q0 119 80 183q74 60 196 60h8q129 0 211 -49q100 -60 100 -180v-321q0 -30 22 -56t52 -26q67 0 67 79v453q0 44 34 73q31 27 76 27h5q107 0 107 -98v-474q0 -91 -74 -168q-82 -86 -197 -86l-11 -1q-113 0 -209 80q-11 -18 -34 -53q-19 -27 -47 -27 q-30 0 -56.5 21.5t-26.5 50.5v368q0 62 65 62v86q0 69 -75 69q-69 0 -69 -80v-374q55 -27 55 -59l-3 -23q0 -49 -43 -85t-93 -36q-53 0 -95 33q-45 36 -45 88z" />
<glyph unicode="&#xe0d;" horiz-adv-x="1079" d="M42 113v472q0 116 101 180q86 54 208 54q281 0 281 -208v-162q0 -47 46 -47h46q37 0 42 49v277q0 41 31.5 67.5t72.5 26.5h5q111 0 111 -101v-583q0 -143 -135 -143h-363q-88 0 -88 91q0 92 82 92h231q50 0 50 42v12h-254q-58 0 -78.5 25t-20.5 84v228q0 74 -75 74 q-69 0 -69 -58v-388q0 -11 51 -40t51 -69v-17q0 -80 -138 -80q-69 0 -122 26q-66 33 -66 96z" />
<glyph unicode="&#xe0e;" horiz-adv-x="789" d="M2 -195q0 96 81 96h301q17 0 31 4q17 0 17 19v636q0 64 -46 69h-11q-59 0 -59 -71v-433q0 -54 -54 -93q-49 -35 -105 -35l-4 3q-130 0 -130 99q0 51 63 107v379q0 104 99 174q89 63 197 63q112 0 194 -61q91 -68 91 -176v-729q0 -71 -45.5 -111.5t-117.5 -40.5h-427 q-75 0 -75 101z" />
<glyph unicode="&#xe0f;" horiz-adv-x="812" d="M12 -210q0 75 89 112q66 27 153 27h10q28 0 106 -39q38 -19 63 -19l11 -2q49 0 49 60l2 11v618q0 3 1 9.5t1 9.5q0 62 -57 62h-15q-71 0 -71 -84v-442q0 -55 -58 -86q-48 -25 -108 -25q-137 0 -137 89v6q0 39 34 71q16 15 49 45v386q0 107 97 168q83 52 197 52 q121 0 203 -57q93 -66 93 -182v-756q-16 -128 -122 -128h-239q-29 0 -71 29q-20 14 -33 14q-20 0 -56 -24.5t-57 -24.5h-5q-50 0 -87 24q-42 28 -42 76z" />
<glyph unicode="&#xe10;" horiz-adv-x="754" d="M37 187q0 75 76 75h149q37 0 74 -60q18 -29 41 -29q60 0 60 86v8q0 26 -5.5 33.5t-29.5 7.5h-189q-125 0 -125 213q0 141 81 221t222 80h18q76 0 146 -40q82 -47 82 -118v-10q0 -98 -99 -98l-7 -1q-40 0 -95 42q-26 20 -50 20q-59 0 -72 -59q0 -78 58 -76l153 4 q47 1 89.5 -47t40.5 -106l-7 -176q-2 -59 -46 -106q-52 -56 -107 -56h-317q-15 0 -24 26q-20 59 -41 63q-76 15 -76 103zM52 -282q0 66 70 101q56 28 127 28q23 0 62 -20.5t57 -20.5h69q5 10 16 30q17 30 60 30q51 0 89.5 -37t38.5 -88v-8q-7 -49 -60 -84q-48 -33 -100 -33 q-38 0 -110.5 28t-103.5 28h-10q-20 0 -44 -10q-60 -25 -75 -25q-26 0 -56 27.5t-30 53.5z" />
<glyph unicode="&#xe11;" horiz-adv-x="812" d="M40 717v9q0 94 94 94q22 0 39 -11q21 -18 35 -29q16 16 25 24q18 16 38 16q42 0 70 -54q20 13 61 38q35 20 79 20h10q83 0 149 -54q71 -57 71 -138v-533q0 -45 -26.5 -76t-70.5 -31q-8 1 -12 1l-5 4q-62 0 -89 21.5t-27 80.5v431q0 31 -19 56t-50 25q-69 0 -69 -81v-431 q0 -99 -111 -99q-49 0 -80 27q-34 29 -34 77v521q-78 29 -78 92z" />
<glyph unicode="&#xe12;" horiz-adv-x="1439" d="M67 97v484q0 89 90 165q86 74 176 74q113 0 195 -70q74 72 168 72q99 0 185 -67q93 -71 93 -168v-357q0 -55 76 -64l4 -3q67 0 67 67v483q0 101 106 101h6q108 0 108 -99v-498q0 -69 -84 -145q-93 -84 -203 -84h-6q-85 0 -204 79q-12 -15 -35.5 -44.5t-42.5 -29.5l-14 -2 q-63 0 -63 61v338q0 47 65 55v154q0 51 -57 51q-25 0 -67.5 -47.5t-67.5 -47.5h-85q-27 12 -60 56q-27 36 -61 36q-67 0 -67 -74v-339q0 -31 34 -46l5 -3q67 0 67 57q0 20 -26 52t-26 62v17q0 79 53 79h154q33 0 59 -43q23 -38 23 -73q0 -8 -5 -38l-71 -222q-13 -42 -39 -57 q-31 -19 -89 -19h-243q-118 0 -118 97z" />
<glyph unicode="&#xe13;" horiz-adv-x="1195" d="M49 148v452q0 91 99 159q90 61 185 61h5q109 0 200 -59q103 -68 103 -171v-323q0 -75 76 -75l9 3q72 0 72 66v491q0 68 90 68h24q108 -11 108 -74v-242q0 -4 40.5 -34t40.5 -53v-331q0 -84 -79 -84q-34 0 -59 23q-15 14 -38 51q-66 -41 -99 -56q-53 -23 -109 -23h-9 q-117 0 -200 65q-89 71 -89 185v309q0 66 -70 66q-25 0 -47 -18.5t-22 -43.5v-360q43 0 73.5 -25.5t30.5 -68.5v-7q0 -52 -48 -79q-40 -23 -96 -23h-11q-66 0 -121 41q-59 45 -59 110z" />
<glyph unicode="&#xe14;" horiz-adv-x="721" d="M35 89v499q0 105 91 172q82 60 191 60h7q113 0 199 -59q97 -66 97 -174v-506q0 -42 -33 -68.5t-76 -26.5h-9q-44 0 -76 25q-35 28 -35 70v486q0 51 -68 51q-66 0 -66 -51v-398q79 -11 79 -88v-10q-8 -85 -128 -85q-59 0 -111 26q-62 31 -62 77z" />
<glyph unicode="&#xe15;" horiz-adv-x="1057" d="M46 131v464q0 100 86 166q79 61 182 61h5q37 0 92 -31q71 -40 90 -46l62 40q65 39 110 39h11q96 0 179 -66q92 -73 92 -173v-523q0 -67 -104 -67q-62 0 -83 11q-27 14 -27 59v516q0 58 -54 58q-29 0 -88.5 -45.5t-89.5 -45.5q-43 0 -94.5 43t-73.5 43q-72 0 -72 -63v-328 q0 -47 50 -51l56 -4q44 -3 44 62q0 18 -56 66q-27 23 -27 45q0 95 83 103h157q61 0 61 -54v-146l-66 -192q-25 -72 -113 -72h-273q-60 0 -99.5 36t-39.5 95z" />
<glyph unicode="&#xe16;" horiz-adv-x="731" d="M34 123v701h436q162 0 162 -181v-560q0 -86 -114 -86q-115 0 -115 84v463q0 67 -54 67h-82v-398q86 0 86 -99v-5q0 -109 -145 -109q-66 0 -115 28q-59 34 -59 95z" />
<glyph unicode="&#xe17;" horiz-adv-x="754" d="M35 77v647q0 44 38 71q35 25 80 25q73 0 114 -72q94 71 191 71q60 0 118 -35q74 -45 74 -117v-583q0 -84 -124 -84q-41 0 -73 24t-32 64v448q0 88 -80 88q-31 0 -55 -21.5t-24 -52.5v-467q0 -37 -30.5 -60t-68.5 -23l-13 -3q-39 0 -74 20q-41 24 -41 60z" />
<glyph unicode="&#xe18;" horiz-adv-x="743" d="M40 58v127q0 55 83 55h39q23 -3 63 -29q37 -24 54 -24l87 1q46 1 46 34v47q0 34 -44 34h-200q-41 0 -76 25q-38 28 -38 68v221q0 105 102 161q83 46 197 46q106 0 178 -35q94 -46 94 -142v-10q0 -81 -114 -81l-5 -1q-35 0 -85 30t-63 30h-15q-61 0 -61 -69q0 -45 65 -45 h159q56 0 94.5 -36.5t38.5 -92.5v-243q0 -138 -148 -138h-338q-113 0 -113 67z" />
<glyph unicode="&#xe19;" horiz-adv-x="800" d="M35 220v513q0 87 108 87h10q106 0 106 -84v-438q0 -76 69 -83l3 -2q31 0 53.5 26.5t22.5 58.5v435q0 87 106 87h12q41 0 70.5 -23.5t29.5 -63.5v-232q71 0 71 -80v-330q0 -36 -25 -65.5t-60 -28.5q-33 1 -93 70q-104 -65 -215 -65q-105 0 -182 55q-86 62 -86 163z" />
<glyph unicode="&#xe1a;" horiz-adv-x="731" d="M39 255v478q0 41 41 67q35 22 78 22h10q41 0 73 -24.5t32 -64.5v-456q0 -74 60 -74l10 -3q60 0 60 66l-1 472q0 84 97 84h12q122 0 121 -89l-5 -491q-1 -122 -88 -191q-81 -63 -206 -63q-111 0 -200 77q-94 81 -94 190z" />
<glyph unicode="&#xe1b;" horiz-adv-x="743" d="M35 240v508q0 74 120 74h7q100 0 100 -82v-467q0 -83 78 -83l3 4q69 0 69 75v705q0 46 33 73t81 27q113 0 113 -109v-752q0 -110 -100 -171q-84 -51 -201 -51q-109 0 -202 69q-101 74 -101 180z" />
<glyph unicode="&#xe1c;" horiz-adv-x="1067" d="M39 243v478q0 48 16 68q25 31 98 31h124q91 0 91 -86q0 -44 -52 -71t-52 -57v-342q0 -40 16 -52.5t58 -12.5q40 0 54 10q20 14 20 60v452q0 103 104 103q41 0 71 -27t30 -68v-452q0 -45 15 -61.5t59 -16.5q38 0 48 18q7 12 7 54v460q0 84 103 93q119 0 119 -100v-516 q0 -103 -74 -162q-68 -55 -173 -55h-10q-74 0 -198 63q-112 -63 -196 -63h-11q-107 0 -187 73t-80 179z" />
<glyph unicode="&#xe1d;" horiz-adv-x="1092" d="M71 249v447q0 63 55 98q47 30 114 30h7q123 0 123 -84q0 -43 -37 -65.5t-37 -45.5v-358q0 -28 19.5 -49.5t47.5 -21.5q67 0 67 67l-2 443q0 46 28.5 77.5t74.5 31.5q106 0 106 -104v-466q0 -61 52 -61l8 4q68 0 68 58v706q0 40 34 65q31 21 73 21q41 0 73 -22 q36 -25 36 -64v-722q0 -95 -84.5 -169.5t-181.5 -74.5q-104 0 -189 61q-101 -61 -170 -61q-5 3 -7 3q-108 0 -193 74.5t-85 181.5z" />
<glyph unicode="&#xe1e;" horiz-adv-x="1103" d="M64 243v503q0 33 43 55q36 18 73 18q111 0 111 -74v-478q0 -67 65 -67l7 3q70 0 70 79v454q0 38 36 64q32 24 72 24q43 0 74 -22q35 -25 35 -66v-469q0 -64 67 -64q53 0 53 68v450q0 99 116 99q46 0 78 -24q34 -27 34 -72v-488q0 -96 -80 -167.5t-177 -71.5 q-62 0 -131 34q-26 13 -67 34q-30 -15 -89 -44q-54 -24 -119 -24q-93 0 -182 77t-89 169z" />
<glyph unicode="&#xe1f;" horiz-adv-x="1092" d="M54 237v499q0 42 40 66q34 20 79 20q113 0 113 -81v-464q0 -64 61 -64q58 0 58 56v459q0 42 32 69q29 25 72 25h4q46 0 77 -24q35 -26 35 -70v-439q0 -76 71 -77q65 -1 65 75v693q0 79 109 79q113 0 113 -87v-757q0 -87 -95 -154q-87 -61 -177 -61h-7q-72 0 -174 60 q-109 -57 -197 -57l-5 -3q-95 0 -182 70q-92 74 -92 167z" />
<glyph unicode="&#xe20;" horiz-adv-x="789" d="M51 83l3 14q0 30 37.5 55.5t37.5 42.5v400q0 111 92 173q80 54 196 54h6q118 0 188 -57q76 -61 76 -175v-511q0 -38 -42 -60q-34 -17 -76 -17q-85 0 -85 81v451q0 27 -16 50q-18 27 -43 27q-69 0 -69 -67l2 -438q0 -55 -54 -85q-44 -24 -104 -24l-10 5q-44 0 -86 19 q-53 23 -53 62z" />
<glyph unicode="&#xe21;" horiz-adv-x="766" d="M42 65v319q0 85 62 85v262q0 35 40 63q37 25 74 25q110 0 110 -85v-467q0 -67 56 -67q60 0 60 62v476q0 81 97 81h14q109 0 109 -83v-511q0 -108 -85 -174q-78 -60 -189 -60h-12q-104 0 -188 81q-26 -40 -39 -54q-25 -27 -50 -27t-42 24t-17 50z" />
<glyph unicode="&#xe22;" horiz-adv-x="731" d="M40 230v198q0 56 98 97q-18 10 -54 31q-32 21 -32 46v134q0 40 42 64q36 20 79 20q116 0 116 -62v-106q6 -11 32 -41q45 -52 45 -90t-37 -73q-48 -46 -56 -62v-132q0 -54 63 -54q67 0 67 59l-1 474q0 39 33 64q31 22 71 22h25q99 0 99 -95v-482q0 -115 -95 -185 q-85 -64 -204 -64q-116 0 -198 60q-93 66 -93 177z" />
<glyph unicode="&#xe23;" horiz-adv-x="556" d="M40 578l2 5q0 103 74 170t178 67h14q46 0 84 -20q47 -25 47 -67q0 -90 -85 -90q-29 0 -54.5 -20.5t-25.5 -49.5l3 -2q0 -46 47 -105q30 -36 88 -108q48 -62 48 -116v-8q0 -100 -89 -168q-82 -64 -184 -64q-138 0 -138 97l3 7q0 53 83 83.5t83 52.5v13q-6 31 -126 198 q-52 72 -52 125z" />
<glyph unicode="&#xe24;" horiz-adv-x="743" d="M40 129v456q0 112 92 177q81 58 197 58q121 0 207 -52q103 -62 103 -176v-723q0 -46 -37 -73q-33 -25 -81 -25q-104 0 -104 100v680q0 64 -68 64q-85 0 -85 -72v-363q92 -13 92 -79v-12q0 -94 -151 -94q-55 0 -108 39q-57 42 -57 95z" />
<glyph unicode="&#xe25;" horiz-adv-x="731" d="M28 84v159q0 73 88 123q56 25 169 77q96 46 106 110v9q0 49 -60 49l-5 4q-23 0 -50 -18q-63 -42 -84 -42l11 -9q-46 0 -85 27q-44 30 -44 74v10q0 80 89 126q72 37 160 37h5q110 0 199 -53q105 -62 105 -165v-503q0 -43 -37.5 -71t-81.5 -28l-6 3q-105 0 -105 81v203 q0 7 -24 7q-32 0 -75 -22q-49 -26 -49 -54v-139q0 -79 -115 -79q-33 0 -70 25q-41 27 -41 59z" />
<glyph unicode="&#xe26;" horiz-adv-x="789" d="M47 71q0 26 27.5 50.5t27.5 38.5v440q0 100 84 163q76 57 179 57h31q111 0 194 -46q101 -56 101 -159v-793q0 -84 -115 -84q-118 0 -118 84v733q0 53 -70 53q-55 0 -55 -65l-2 -448q0 -109 -146 -109q-138 0 -138 85z" />
<glyph unicode="&#xe27;" horiz-adv-x="685" d="M35 724l4 9q0 91 123 91h16q184 0 305 -127q109 -114 109 -257v-7q0 -166 -117 -301q-123 -141 -287 -141h-10q-51 0 -85.5 30.5t-34.5 80.5l-4 2q0 73 90 95l6 -2q95 0 158.5 65t63.5 161q0 92 -78 148q-69 49 -165 49h-9q-31 7 -58 40t-27 64z" />
<glyph unicode="&#xe28;" horiz-adv-x="731" d="M52 71v546q0 81 77 146q74 61 157 61h10q73 0 114 -35v191q0 38 36 63q32 23 72 23q42 0 75 -20q39 -23 39 -63v-907q0 -36 -39 -57q-31 -17 -70 -17q-41 0 -74 19q-39 22 -39 60v477q0 59 -72 59h-7q-62 0 -62 -54v-142q92 -36 92 -98q0 -35 -27 -63l-60 -42v-147 q0 -69 -105 -69q-36 0 -72 17q-45 20 -45 52z" />
<glyph unicode="&#xe29;" horiz-adv-x="743" d="M44 242v482q0 43 33 70q30 25 74 25q116 0 116 -83v-470q0 -72 74 -72t74 67v158q-43 0 -72 28.5t-29 71.5q0 70 89 92v129q0 79 108 79q113 0 113 -74v-121q35 -21 44 -27q36 -26 36 -66v-5q0 -103 -61 -103l-4 2v-173q0 -116 -73.5 -185.5t-190.5 -69.5h-44 q-113 0 -196 65q-91 71 -91 180z" />
<glyph unicode="&#xe2a;" horiz-adv-x="721" d="M39 317q0 67 86 107q54 22 161 67q87 38 87 92q0 34 -51 34h-30q-28 0 -91 -55q-30 -26 -58 -26l-5 -5q-41 0 -66.5 32t-25.5 74q0 74 89 131q79 51 157 51h9q8 -1 19 0l20 2q16 0 33 -11l2 84q2 76 99 76h8q129 0 129 -95v-781q0 -94 -105 -94q-118 0 -118 89v202 q0 37 -30 37q-18 0 -72 -34q-29 -18 -29 -60v-163q0 -71 -104 -71h-5q-108 0 -108 94z" />
<glyph unicode="&#xe2b;" horiz-adv-x="729" d="M34 84v668q0 72 116 72q107 0 107 -72v-209q105 0 164 -13q209 -46 209 -268v-191q0 -28 -43 -51q-37 -19 -68 -19q-9 1 -13 1q-99 9 -99 75v219q0 69 -48 86q-7 4 -31 4q-44 0 -61 -3q-6 0 -17 -3v-306q0 -27 -37 -51.5t-65 -24.5q-32 0 -71 27q-43 29 -43 59zM345 696 l2 5q0 53 39 85.5t93 32.5q55 0 92 -34.5t37 -88.5q0 -48 -38.5 -80.5t-87.5 -32.5q-127 0 -137 113z" />
<glyph unicode="&#xe2c;" horiz-adv-x="1092" d="M69 222v516q0 32 41 58q37 23 71 23h4q109 0 109 -73v-477q0 -66 65 -66q85 0 85 64v459q0 93 106 93q97 0 97 -93v-457q0 -72 57 -72h6q65 0 65 72v522q0 78 -34 78h-56q-25 0 -43 19.5t-18 44.5l1 6q0 57 49 56l101 -3q23 -1 42 18q42 41 69 44q102 0 102 -73 q-2 -20 -57 -62q20 -24 40 -47q21 -29 21 -62v-607q0 -94 -98 -152q-82 -49 -175 -49l-18 -2q-83 0 -167 65q-85 -65 -189 -65h-14q-88 0 -172 66q-90 71 -90 156z" />
<glyph unicode="&#xe2d;" horiz-adv-x="951" d="M40 345q0 52 26 98q31 54 80 54h212q98 0 98 -104q0 -34 -28 -60.5t-62 -26.5h-97q67 -112 171 -112l12 3q89 0 139 64q46 58 46 149v5q0 207 -186 207q-26 0 -84.5 -27.5t-92.5 -27.5q-45 0 -83 27q-41 30 -41 73l3 2q0 66 102 111q91 40 196 40q165 0 286.5 -124 t121.5 -289q0 -176 -132 -297q-120 -110 -269 -110q-160 0 -283 91q-135 99 -135 254z" />
<glyph unicode="&#xe2e;" horiz-adv-x="951" d="M46 326q0 158 111 158h186q41 0 73 -21q36 -24 36 -63v-4q0 -98 -89 -98h-77q0 -44 58 -71q46 -21 96 -21l11 2q181 0 181 217l-2 5q0 86 -43 140q-47 60 -131 60h-5q-39 0 -120 -46t-113 -46l-3 3q-36 0 -68.5 28t-32.5 63l2 5q0 86 117 139q98 44 212 44h11 q41 0 93 -19q19 -7 81 -36v198q0 72 101 72h28q85 0 85 -61v-631q0 -177 -121 -265q-106 -78 -290 -78q-141 0 -259 91q-128 99 -128 235z" />
<glyph unicode="&#xe2f;" horiz-adv-x="650" d="M42 715l2 9q0 40 27.5 67.5t67.5 27.5q57 0 113 -66q27 -32 59 -32q24 0 31 14q2 3 7 38q15 57 98 57q93 -14 99 -72v-689q0 -79 -113 -79q-116 0 -116 82v437h-85q-83 0 -136.5 61t-53.5 145z" />
<glyph unicode="&#xe30;" horiz-adv-x="428" d="M60 200q0 44 31 74t75 30q45 0 76 -29.5t31 -74.5t-31 -77t-76 -32t-75.5 32t-30.5 77zM60 574q0 47 32 80t79 33t81 -33t34 -80q0 -48 -33.5 -81t-81.5 -33q-49 0 -80 32.5t-31 81.5z" />
<glyph unicode="&#xe31;" d="M-373 1034l1 10q0 120 115 120h5q69 0 97 -70h160q34 0 59 -21t25 -55q0 -88 -72 -88h-294q-96 0 -96 104z" />
<glyph unicode="&#xe32;" horiz-adv-x="465" d="M42 724q0 95 78 95h122q119 0 119 -120v-620q0 -82 -102 -82q-39 0 -69 19q-35 22 -35 58v521q0 22 -56.5 51t-56.5 78z" />
<glyph unicode="&#xe33;" horiz-adv-x="477" d="M-374 1044q0 48 30.5 79t78.5 31q46 0 76.5 -31.5t30.5 -77.5q0 -42 -27 -73q-31 -35 -82 -35q-46 0 -76.5 30.5t-30.5 76.5zM42 724q0 95 78 95h122q119 0 119 -120v-620q0 -82 -102 -82q-39 0 -69 19q-35 22 -35 58v521q0 22 -56.5 51t-56.5 78z" />
<glyph unicode="&#xe34;" d="M-758 1041q0 102 103 102h430q87 0 87 -86v-5q0 -99 -87 -99h-434q-99 0 -99 88z" />
<glyph unicode="&#xe35;" d="M-765 1041q0 39 20 66q23 31 60 31h308q33 82 100 82q127 0 127 -124v-9q0 -138 -74 -138h-461q-31 0 -55.5 30t-24.5 62z" />
<glyph unicode="&#xe36;" d="M-775 1066q17 74 81 82h259q49 46 72 61q37 24 76 24q61 0 105 -37t44 -97q0 -52 -28 -93q-32 -46 -81 -46h-449q-79 0 -79 106z" />
<glyph unicode="&#xe37;" d="M-734 1064q0 30 22.5 53t52.5 23h129q26 49 76 49h9q24 0 48 -16q11 -7 44 -35h47q30 51 74 51q86 0 86 -60v-109q0 -60 -84 -60h-425q-78 0 -78 99z" />
<glyph unicode="&#xe38;" d="M-356 -279q0 39 34 63q30 21 70 21h9q99 -16 99 -74v-143q0 -76 -105 -76q-107 0 -107 90v119z" />
<glyph unicode="&#xe39;" d="M-685 -234q0 38 30.5 64.5t69.5 26.5q44 0 69 -23q7 -8 44 -56q10 -34 18 -52q24 -52 51 -52q70 0 70 62q15 35 24 51q31 51 66 51q111 0 123 -109q0 -109 -91 -178q-84 -64 -196 -64h-5q-101 0 -171 72q-55 56 -81 134q-7 24 -21 73z" />
<glyph unicode="&#xe3a;" d="M-344 -269q0 43 28 77q34 31 79 31q44 0 74 -30t30 -74q0 -47 -30.5 -77t-77.5 -30q-44 0 -73.5 27.5t-29.5 75.5z" />
<glyph unicode="&#xe3f;" horiz-adv-x="771" d="M39 72v747q13 98 79 100l166 6v119h104v-119q113 0 183 -63t70 -175q0 -129 -100 -190q79 -13 124 -87q39 -66 39 -151q-21 -200 -240 -249q-45 -10 -76 -10v-120h-104v120l-166 3q-79 1 -79 69zM249 183h153q41 0 62 9q37 16 37 63v18q0 31 -18 60q-21 33 -51 33h-183 v-183zM249 555h133q55 0 55 74q0 33 -16 60q-18 32 -49 32h-123v-166z" />
<glyph unicode="&#xe40;" horiz-adv-x="372" d="M42 74v667q0 79 120 79q102 0 102 -70l-2 -681q0 -79 -109 -79q-43 0 -74 20q-37 24 -37 64z" />
<glyph unicode="&#xe41;" horiz-adv-x="685" d="M42 74v667q0 79 120 79q102 0 102 -70l-2 -681q0 -79 -109 -79q-43 0 -74 20q-37 24 -37 64zM356 76v667q0 79 120 79q102 0 102 -70l-2 -681q0 -80 -109 -80q-43 0 -75 20q-36 24 -36 65z" />
<glyph unicode="&#xe42;" horiz-adv-x="378" d="M47 89v941q0 159 171 159q170 0 170 -110v-7q0 -31 -16 -57q-19 -30 -49 -30q-46 0 -46 -55l2 -831q0 -109 -110 -109h-11q-43 0 -77 28t-34 71z" />
<glyph unicode="&#xe43;" horiz-adv-x="477" d="M-168 955q0 92 77 156q73 60 167 60q104 0 191 -52q103 -60 103 -158v-882q0 -43 -40 -68q-34 -21 -80 -21q-40 0 -68 22q-31 23 -31 62v820q0 71 -68 71h-11q-25 -4 -80 -69q-24 -29 -50 -29h-9q-36 0 -66 24q-33 25 -33 60z" />
<glyph unicode="&#xe44;" horiz-adv-x="373" d="M-111 1078l2 16l-2 5q0 84 116 84h9q111 0 166 -19q84 -29 84 -110v-971q0 -86 -120 -86q-104 0 -104 86l-1 847q0 53 -71 53h-10q-69 0 -69 95z" />
<glyph unicode="&#xe45;" horiz-adv-x="493" d="M49 724q0 95 80 95h120q137 0 137 -120v-845q0 -83 -119 -83q-39 0 -69 19q-35 22 -35 59v746q0 22 -57 51t-57 78z" />
<glyph unicode="&#xe46;" horiz-adv-x="662" d="M42 729q0 33 16 61q20 34 50 34h149q5 -4 22 -28q10 -14 15 -14h44q34 25 44 30q23 12 51 12q129 0 129 -84v-682q0 -65 -98 -65q-38 0 -69 15q-39 20 -39 54v549q-37 -21 -48 -21q-22 0 -80 31q-28 15 -59 15h-60q-30 0 -50 33q-17 28 -17 60z" />
<glyph unicode="&#xe47;" d="M-701 1054v141q0 101 153 101h375q60 0 60 -59t-50 -59h-378q-35 0 -35 -51l3 -12q0 -46 27 -46l10 3l113 37q46 0 92 -30h144q58 0 58 -49q0 -70 -125 -70q-40 0 -158 35h-15q-6 0 -43 -17.5t-71 -17.5q-50 0 -99 22q-61 28 -61 72z" />
<glyph unicode="&#xe48;" d="M-343 1398v119q0 39 33 63q29 21 70 21h8q100 -16 100 -74v-143q0 -75 -105 -75q-106 0 -106 89z" />
<glyph unicode="&#xe49;" d="M-431 1462q0 34 40 75q25 26 67 26q9 0 28 -1t29 -1h5q67 0 99 -68h158q33 0 58.5 -21.5t25.5 -53.5v-5q0 -84 -70 -84h-296q-23 0 -33 27q-3 7 -6 28q-9 -3 -19 -3q-33 0 -59.5 24t-26.5 57z" />
<glyph unicode="&#xe4a;" d="M-655 1363v109q0 55 56 87q47 27 106 27q26 0 58 -10l53 -16q75 28 98 28h11q74 0 106 -17q42 -22 65 -90q89 0 97 -69v-9q0 -70 -74 -70h-120q-58 0 -58 68v44q0 30 -27 30q-30 0 -30 -30v-79q0 -42 -63 -42l-9 -2q-70 0 -70 44v71q0 30 -30 30q-27 0 -27 -30v-76 q0 -39 -60 -39h-8q-53 0 -74 41z" />
<glyph unicode="&#xe4b;" d="M-341 1477l3 15q8 41 19 54q16 17 55 30q12 62 84 62h17q68 -7 84 -77q28 0 51 -20t23 -48q-6 -69 -72 -90q-20 -70 -106 -70q-69 0 -86 63q-31 0 -51.5 24.5t-20.5 56.5z" />
<glyph unicode="&#xe4c;" d="M-377 1410l9 24q0 102 97 102h294q72 0 72 -84v-5q0 -34 -25.5 -54.5t-59.5 -20.5h-160q-28 -71 -97 -71h-5q-125 0 -125 109z" />
<glyph unicode="&#xe4d;" d="M-388 1055q0 46 31 78.5t77 32.5q45 0 76.5 -32t31.5 -77q0 -44 -28 -74q-30 -33 -82 -33q-46 0 -76 30t-30 75z" />
<glyph unicode="&#xe4e;" d="M-543 1065q0 -44 73 -67q57 -18 129 -18q58 0 110 31q20 16 39 33l-35 46q6 -6 6 -10q0 -18 -77 -38q-27 -7 -48 -7q-52 0 -52 31q0 9 5 19q19 36 44 39q17 1 48 5q52 8 104 19l-11 50q-35 7 -47 11q-32 10 -37 24q-7 49 61 58q15 2 68 2q17 0 95 -15q14 -1 28 -1l-9 71 q-27 4 -46 6q-58 7 -85 7q-78 0 -165 -21q-120 -30 -125 -83q0 -27 48 -56q38 -23 45 -23q-124 -3 -161 -89q-5 -12 -5 -24z" />
<glyph unicode="&#xe4f;" horiz-adv-x="1057" d="M142 410q0 248 193 358q91 51 214 51q250 0 359 -193q51 -92 51 -216q0 -246 -195 -357q-92 -53 -215 -53q-245 0 -355 194q-52 92 -52 216zM197 410q0 -157 97.5 -256t254.5 -99q211 0 309 170q45 79 45 185q0 160 -97 257t-257 97q-211 0 -307 -168q-45 -79 -45 -186z M315 410q0 103 65 168t169 65q136 0 201 -103q33 -54 33 -130q0 -139 -112 -204q-52 -30 -122 -30q-133 0 -200 106q-34 53 -34 128z" />
<glyph unicode="&#xe50;" horiz-adv-x="721" d="M35 366q0 171 67 282q81 134 241 134q277 0 277 -384q0 -159 -56 -264q-71 -134 -217 -134q-155 0 -237 108q-75 98 -75 258zM240 396l2 -8q0 -196 84 -196v-4q46 0 74 81q21 62 21 119q0 67 -22 124q-27 69 -71 69t-69 -74q-19 -56 -19 -111z" />
<glyph unicode="&#xe51;" horiz-adv-x="476" d="M40 627l2 5q0 74 72 116q60 35 140 35h5q37 0 72 -20q41 -23 41 -57v-607q0 -99 -113 -99q-106 0 -106 99v454q-20 -15 -35 -15q-30 0 -54 29t-24 60z" />
<glyph unicode="&#xe52;" horiz-adv-x="743" d="M37 86v11q7 71 89 127q88 60 172 138q121 112 121 168v11q0 84 -81 84q-36 0 -62 -20q-29 -22 -27 -50l1 -12q2 -11 16 -37.5t14 -43.5q0 -85 -81 -85l-9 1q-64 0 -104 59q-35 52 -35 119q0 104 84 174q80 66 186 66q129 0 210 -59q91 -66 91 -191v-5q0 -134 -128 -269 q-5 -5 -104 -101h146q31 0 50.5 -25t19.5 -57q0 -92 -62 -92h-428q-34 0 -56.5 27t-22.5 62z" />
<glyph unicode="&#xe53;" horiz-adv-x="627" d="M49 134v5q0 78 80 78q17 0 65 -26q24 -13 43 -13l5 2q77 0 77 72q0 71 -70 79q-74 33 -74 79q0 43 67 76q36 18 43 22q36 23 36 52q0 40 -12 54.5t-52 14.5q-14 0 -45 -10.5t-46 -10.5q-87 0 -87 76v7q0 60 61 92q50 27 115 27h11q110 0 176 -47q77 -54 77 -159v-16 q0 -89 -75 -169q74 -108 74 -192v-5q0 -99 -75 -162q-71 -60 -172 -60q-72 0 -139 31q-83 39 -83 103z" />
<glyph unicode="&#xe54;" horiz-adv-x="721" d="M32 249q0 25 5 42l131 447q33 77 112 77q85 0 85 -67v-15l-104 -363q-1 -5 -10 -21.5t-9 -20.5q0 -11 54 -11h57v113q0 76 101 76h6q86 0 86 -87v-96l4 -2q56 0 56 -94v-7q0 -74 -78 -74l8 -97q2 -28 -25 -43.5t-71 -15.5q-106 0 -109 54l-5 100h-155q-139 0 -139 105z " />
<glyph unicode="&#xe55;" horiz-adv-x="639" d="M42 132q0 39 24.5 67t62.5 28q20 0 44 -8q60 -20 70 -20q79 0 84 55q2 20 2 30q0 72 -102 72h-65q-91 0 -91 89v276q0 84 91 84h263q33 0 62 -30.5t29 -64.5q0 -95 -79 -95h-145q-25 0 -25 -30v-35q0 -25 43 -25q109 0 167 -79q53 -70 53 -182v-10q0 -244 -288 -244 q-62 0 -124 30q-76 37 -76 92z" />
<glyph unicode="&#xe56;" horiz-adv-x="754" d="M49 273q0 159 256 383q87 76 132 98q25 12 54 12q62 0 83 -19q26 -24 26 -60q0 -30 -24 -51l-109 -95q183 -83 183 -264v-6q0 -271 -314 -271h-5q-112 0 -195.5 79.5t-83.5 191.5zM262 284q0 -41 25.5 -69t66.5 -28l4 1q82 0 82 91v13q0 81 -86 81q-92 0 -92 -89z" />
<glyph unicode="&#xe57;" horiz-adv-x="696" d="M35 682q0 35 20 62t54 27h392q84 0 96 -79q0 -1 -10 -42l-328 -620q-21 -40 -109 -40q-33 0 -65.5 24.5t-32.5 57.5q0 13 6 23l266 446l4 17q0 22 -41 23l-162 4q-35 1 -60.5 28.5t-25.5 62.5z" />
<glyph unicode="&#xe58;" horiz-adv-x="685" d="M68 585q0 -8 1 -12v-48q0 -57 79 -132q-79 -86 -79 -175v-5q0 -100 69 -160q66 -56 168 -56h11q111 0 188 73q68 64 68 134v9l-4 30q-12 93 -97 152q37 44 46 57q23 33 23 76v41q0 86 -68.5 147t-155.5 61h-19q-98 0 -169 -71q-61 -61 -61 -121zM242 544q0 -72 72 -72 q70 0 70 72q0 62 -70 71q-30 4 -51 -18.5t-21 -52.5zM250 229q0 30 21.5 52t51.5 22q28 0 48 -23t20 -51q0 -69 -68 -69q-28 0 -50.5 20.5t-22.5 48.5z" />
<glyph unicode="&#xe59;" horiz-adv-x="731" d="M23 491v6q0 269 313 269h5q113 0 196 -78.5t83 -190.5l2 -4q0 -157 -256 -382q-81 -71 -129 -97q-26 -14 -54 -14q-56 0 -84 28q-27 20 -27 51q0 34 27 53l109 95q-185 80 -185 264zM232 476q8 -83 87 -83q93 0 93 89q0 99 -93 99l-5 -3q-82 0 -82 -90v-12z" />
<glyph unicode="&#xe5a;" horiz-adv-x="963" d="M42 715l2 9q0 40 27.5 67.5t67.5 27.5q56 0 113 -72q27 -34 59 -34q24 0 31 15q0 1 7 38q10 56 98 56q94 -12 99 -70v-683q0 -79 -113 -79q-116 0 -116 82v430h-85q-84 0 -139 66q-51 62 -51 147zM627 717q0 103 104 103q67 0 90 -12q32 -18 38 -77v-662q0 -79 -113 -79 q-44 0 -76 19q-40 23 -40 63z" />
<glyph unicode="&#xe5b;" horiz-adv-x="1791" d="M10 351q0 299 267 352q20 4 45 4q56 0 114 -25q20 -8 46 -25l-5 -153q-41 41 -133 41h-21q-8 0 -25 -2q-144 -17 -144 -170q0 -77 43 -133q46 -61 121 -61q8 0 20 1q101 8 168 86q43 49 79 142q29 74 37 74q5 0 54.5 -90.5t63.5 -90.5q10 0 51.5 90.5t57.5 90.5 q14 2 43 -64l59 -136q35 0 48 93.5t48 93.5q11 0 56 -105t79 -98q4 1 86 116q37 53 87 63q5 1 12 1q26 0 57 -22q69 -48 90 -48q11 0 22 4q17 4 31 20q3 4 31 56l51 -142q-34 -58 -96 -80q-9 -3 -29 -5q-25 0 -57 19q-72 42 -98 42q-9 0 -14 -1q-35 0 -93 -63.5t-107 -63.5 q-28 0 -57 43q-43 65 -43 84q-27 -35 -45 -56q-50 -60 -71 -71q-21 -8 -62 65q-17 30 -38 69l-51 -67q-54 -68 -64 -63q-17 8 -48 51q-12 17 -37 52q-26 -46 -52 -93q-32 -53 -66 -83q-79 -71 -190 -71q-110 0 -200 64q-97 68 -114 173q-7 43 -7 92z" />
<glyph unicode="&#x2000;" horiz-adv-x="850" />
<glyph unicode="&#x2001;" horiz-adv-x="1700" />
<glyph unicode="&#x2002;" horiz-adv-x="850" />
<glyph unicode="&#x2003;" horiz-adv-x="1700" />
<glyph unicode="&#x2004;" horiz-adv-x="566" />
<glyph unicode="&#x2005;" horiz-adv-x="425" />
<glyph unicode="&#x2006;" horiz-adv-x="283" />
<glyph unicode="&#x2007;" horiz-adv-x="283" />
<glyph unicode="&#x2008;" horiz-adv-x="212" />
<glyph unicode="&#x2009;" horiz-adv-x="340" />
<glyph unicode="&#x200a;" horiz-adv-x="94" />
<glyph unicode="&#x2010;" horiz-adv-x="890" d="M44 461q0 44 25 77t68 33h617q42 0 72.5 -34t30.5 -76q0 -43 -24 -72q-26 -32 -68 -32h-628q-42 0 -67.5 30.5t-25.5 73.5z" />
<glyph unicode="&#x2011;" horiz-adv-x="890" d="M44 461q0 44 25 77t68 33h617q42 0 72.5 -34t30.5 -76q0 -43 -24 -72q-26 -32 -68 -32h-628q-42 0 -67.5 30.5t-25.5 73.5z" />
<glyph unicode="&#x2012;" horiz-adv-x="890" d="M44 461q0 44 25 77t68 33h617q42 0 72.5 -34t30.5 -76q0 -43 -24 -72q-26 -32 -68 -32h-628q-42 0 -67.5 30.5t-25.5 73.5z" />
<glyph unicode="&#x2013;" d="M-644 1046q0 45 29.5 75.5t74.5 30.5q43 0 74 -30.5t31 -73.5q0 -41 -29 -70q-30 -36 -79 -36q-43 0 -72 30.5t-29 73.5z" />
<glyph unicode="&#x2014;" d="M-978 1022v141q0 101 156 101h375q59 0 59 -57q0 -59 -52 -59h-375q-36 0 -36 -52l4 -12q0 -47 27 -47l10 4l113 37q45 0 89 -30h144q59 0 59 -50q0 -70 -123 -70q-41 0 -159 35h-14q-13 0 -30 -10q-41 -25 -84 -25q-49 0 -100 23q-63 27 -63 71z" />
<glyph unicode="&#x2018;" horiz-adv-x="440" d="M-14 898q0 -36 18 -68l116 -203q39 -69 105 -69q39 0 71 26t32 64q0 26 -16 53l-139 238q-34 58 -93 58q-40 0 -67 -29.5t-27 -69.5z" />
<glyph unicode="&#x2019;" horiz-adv-x="440" d="M-14 648q0 26 16 53l139 238q34 58 93 58q40 0 67 -29.5t27 -69.5q0 -36 -18 -68l-116 -203q-39 -69 -105 -69q-39 0 -71 26t-32 64z" />
<glyph unicode="&#x201a;" d="M-636 1020v120q0 39 35 62q30 20 71 20h5q100 -14 100 -74v-143q0 -75 -103 -75q-108 0 -108 90z" />
<glyph unicode="&#x201c;" horiz-adv-x="770" d="M-14 886q0 -40 17 -69l117 -202q21 -37 45 -51q28 -18 58 -18q39 0 71.5 26t32.5 64q0 26 -16 53l-139 237q-35 59 -93 59q-39 0 -66 -30t-27 -69zM318 898q0 -36 18 -68l116 -203q39 -69 105 -69q39 0 71 26t32 64q0 26 -16 53l-139 238q-34 58 -93 58q-40 0 -67 -29.5 t-27 -69.5z" />
<glyph unicode="&#x201d;" horiz-adv-x="770" d="M-14 648q0 26 16 53l139 238q34 58 93 58q40 0 67 -29.5t27 -69.5q0 -36 -18 -68l-116 -203q-39 -69 -105 -69q-39 0 -71 26t-32 64zM319 636q0 26 16 53l139 237q35 59 93 59q39 0 66 -30t27 -69q0 -40 -17 -69l-117 -202q-21 -37 -45 -51q-28 -18 -58 -18q-39 0 -70 25 q-34 27 -34 65z" />
<glyph unicode="&#x201e;" d="M-893 1094v107q0 56 57 88q47 27 107 27q17 0 111 -25q16 6 48.5 16.5t48.5 10.5h10q73 0 107 -19q42 -23 64 -87q90 0 98 -70v-9q0 -69 -75 -69h-120q-58 0 -58 67v46q0 30 -26 30q-30 0 -30 -30v-79q0 -45 -62 -45l-11 -2q-70 0 -70 47v69q0 29 -30 29q-26 0 -26 -29 v-75q0 -41 -60 -41h-7q-52 0 -76 43z" />
<glyph unicode="&#x2020;" d="M-692 1067l7 25q0 100 98 100h293q72 0 72 -84q0 -34 -24.5 -56.5t-59.5 -22.5h-161q-27 -71 -95 -71h-5q-125 0 -125 109z" />
<glyph unicode="&#x2021;" d="M-365 1039v120q0 38 34 62q31 21 70 21h9q99 -12 99 -74v-143q0 -74 -104 -74q-108 0 -108 88z" />
<glyph unicode="&#x2022;" d="M-765 1004l2 11q0 119 115 119h5q69 0 97 -68h160q35 0 60 -22t25 -56q0 -88 -72 -88h-294q-98 0 -98 104z" />
<glyph unicode="&#x2026;" d="M-691 1069q4 6 4 15q8 60 77 84q14 62 89 62h15q70 -7 89 -77q29 0 53 -20t24 -48q0 -67 -75 -90q-20 -72 -110 -72q-72 0 -88 65q-33 0 -55.5 23.5t-22.5 57.5z" />
<glyph unicode="&#x202f;" horiz-adv-x="340" />
<glyph unicode="&#x2030;" d="M-624 990v107q0 55 56 88q47 27 106 27q27 0 58 -10q44 -14 53 -15q27 10 48 16q33 10 51 10h10q74 0 106 -16q43 -22 65 -89q90 0 98 -71v-7q0 -70 -74 -70h-121q-57 0 -57 69v43q0 31 -27 31q-30 0 -30 -31v-79q0 -42 -63 -42l-11 -2q-69 0 -69 44v71q0 30 -29 30 q-27 0 -27 -30v-76q0 -39 -60 -39h-9q-54 0 -74 41z" />
<glyph unicode="&#x2039;" d="M-402 1067q1 5 4 14q2 5 5 11q0 100 95 100h295q74 0 74 -84q0 -34 -25.5 -56.5t-59.5 -22.5h-161q-29 -71 -96 -71h-6q-125 0 -125 109z" />
<glyph unicode="&#x203a;" d="M-713 1415l3 13q8 62 78 84q11 62 88 62h16q37 0 62 -25q18 -18 26 -49q29 0 53 -20.5t24 -49.5q0 -69 -77 -91q-17 -69 -108 -69q-72 0 -89 63q-33 0 -54.5 24.5t-21.5 57.5z" />
<glyph unicode="&#x205f;" horiz-adv-x="425" />
<glyph unicode="&#x2122;" d="M-763 1405q0 34 37 73q27 27 74 27h26q17 -1 26 -1h5q67 0 98 -69h159q33 0 58.5 -21.5t25.5 -54.5q0 -87 -72 -87h-294q-23 0 -33 27q-2 6 -7 27q-9 -3 -19 -3q-34 0 -59 24.5t-25 57.5z" />
<glyph unicode="&#x2212;" horiz-adv-x="1079" d="M42 113v472q0 116 101 180q86 54 208 54q281 0 281 -208v-162q0 -47 46 -47h46q37 0 42 49v277q0 41 31.5 67.5t72.5 26.5h5q111 0 111 -101v-583q0 -143 -135 -143h-363q-88 0 -88 91q0 92 82 92h231q50 0 50 42v12h-254q-58 0 -78.5 25t-20.5 84v228q0 74 -75 74 q-69 0 -69 -58v-388q0 -11 51 -40t51 -69v-17q0 -80 -138 -80q-69 0 -122 26q-66 33 -66 96z" />
<glyph unicode="&#x25fc;" horiz-adv-x="730" d="M0 0v730h730v-730h-730z" />
<glyph unicode="&#xf700;" horiz-adv-x="777" d="M42 168q0 74 78 74h149q36 0 73 -60q18 -29 42 -29q39 0 51 26q7 16 7 61v7q0 28 -5 40q-9 21 -35 21h-189q-125 0 -125 213q0 141 81 217.5t222 76.5h18q76 0 146 -40q82 -47 82 -118v-10q0 -96 -99 -96l-7 -3q-39 0 -81.5 31.5t-63.5 31.5q-59 0 -72 -58q0 -73 58 -71 l153 4q53 1 93 -50q37 -48 37 -103v-195q0 -59 -47.5 -108t-106.5 -55h-316q-14 0 -29 43t-36 47q-78 15 -78 103z" />
<glyph unicode="&#xf701;" d="M-1042 1007q0 101 101 101h430q88 0 88 -86v-5q0 -98 -88 -98h-433q-98 0 -98 88z" />
<glyph unicode="&#xf702;" d="M-1037 1020q0 96 81 96h308q30 84 98 84q129 0 129 -126v-8q0 -140 -76 -140h-459q-31 0 -56 31t-25 63z" />
<glyph unicode="&#xf703;" d="M-1059 1029q19 75 81 82h259q49 46 72 61q37 24 76 24q61 0 104 -35q46 -38 46 -97q0 -52 -28 -94q-32 -47 -81 -47h-450q-79 0 -79 106z" />
<glyph unicode="&#xf704;" d="M-1037 1027q0 32 22.5 54t54.5 22h127q30 49 77 49h8q24 0 49 -16q14 -9 45 -35h44q34 51 76 51q87 0 87 -58v-111q0 -60 -84 -60h-425q-79 0 -79 99z" />
<glyph unicode="&#xf705;" d="M-636 1020v120q0 39 35 62q30 20 71 20h5q100 -14 100 -74v-143q0 -75 -103 -75q-108 0 -108 90z" />
<glyph unicode="&#xf706;" d="M-714 1214q0 36 40 76q26 26 72 26h26q16 -1 25 -1h5q67 0 99 -71h158q34 0 59 -21t25 -55v-4q0 -84 -72 -84h-294q-23 0 -33 27q-2 6 -7 28q-5 -2 -17 -2q-34 0 -60 24t-26 57z" />
<glyph unicode="&#xf707;" d="M-893 1094v107q0 56 57 88q47 27 107 27q17 0 111 -25q16 6 48.5 16.5t48.5 10.5h10q73 0 107 -19q42 -23 64 -87q90 0 98 -70v-9q0 -69 -75 -69h-120q-58 0 -58 67v46q0 30 -26 30q-30 0 -30 -30v-79q0 -45 -62 -45l-11 -2q-70 0 -70 47v69q0 29 -30 29q-26 0 -26 -29 v-75q0 -41 -60 -41h-7q-52 0 -76 43z" />
<glyph unicode="&#xf708;" d="M-691 1069q4 6 4 15q8 60 77 84q14 62 89 62h15q70 -7 89 -77q29 0 53 -20t24 -48q0 -67 -75 -90q-20 -72 -110 -72q-72 0 -88 65q-33 0 -55.5 23.5t-22.5 57.5z" />
<glyph unicode="&#xf709;" d="M-692 1067l7 25q0 100 98 100h293q72 0 72 -84q0 -34 -24.5 -56.5t-59.5 -22.5h-161q-27 -71 -95 -71h-5q-125 0 -125 109z" />
<glyph unicode="&#xf70a;" d="M-365 1039v120q0 38 34 62q31 21 70 21h9q99 -12 99 -74v-143q0 -74 -104 -74q-108 0 -108 88z" />
<glyph unicode="&#xf70b;" d="M-428 1079q0 34 40 74q27 27 70 27q9 0 27 -1t27 -1h5q65 0 97 -69h159q34 0 60 -22t26 -55q0 -86 -73 -86h-294q-23 0 -33 27q-2 6 -7 27q-6 -2 -18 -2q-61 0 -81 57q-5 14 -5 24z" />
<glyph unicode="&#xf70c;" d="M-624 990v107q0 55 56 88q47 27 106 27q27 0 58 -10q44 -14 53 -15q27 10 48 16q33 10 51 10h10q74 0 106 -16q43 -22 65 -89q90 0 98 -71v-7q0 -70 -74 -70h-121q-57 0 -57 69v43q0 31 -27 31q-30 0 -30 -31v-79q0 -42 -63 -42l-11 -2q-69 0 -69 44v71q0 30 -29 30 q-27 0 -27 -30v-76q0 -39 -60 -39h-9q-54 0 -74 41z" />
<glyph unicode="&#xf70d;" d="M-454 1076l3 14q9 41 20 54q16 16 58 31q12 62 87 62h17q73 -8 86 -76q30 0 54.5 -19.5t24.5 -49.5q-7 -73 -77 -90q-17 -72 -108 -72q-72 0 -89 65q-33 0 -54.5 23.5t-21.5 57.5z" />
<glyph unicode="&#xf70e;" d="M-402 1067q1 5 4 14q2 5 5 11q0 100 95 100h295q74 0 74 -84q0 -34 -25.5 -56.5t-59.5 -22.5h-161q-29 -71 -96 -71h-6q-125 0 -125 109z" />
<glyph unicode="&#xf70f;" horiz-adv-x="1127" d="M30 125v486q0 116 100 183q87 60 208 60q289 0 289 -224v-124q0 -64 40 -64h44q43 0 43 51v268q0 42 31.5 68.5t73.5 26.5h6q52 0 85 -32t33 -84v-590q0 -150 -129 -150h-372q-94 0 -94 99q0 89 82 89h231q51 0 51 44v11h-255q-58 0 -80 27q-19 23 -19 84v211 q0 74 -74 74q-62 0 -62 -56v-373q0 -12 47 -41t47 -70v-16q0 -80 -138 -80q-70 0 -122 26q-66 33 -66 96z" />
<glyph unicode="&#xf710;" d="M-765 1004l2 11q0 119 115 119h5q69 0 97 -68h160q35 0 60 -22t25 -56q0 -88 -72 -88h-294q-98 0 -98 104z" />
<glyph unicode="&#xf711;" d="M-644 1046q0 45 29.5 75.5t74.5 30.5q43 0 74 -30.5t31 -73.5q0 -41 -29 -70q-30 -36 -79 -36q-43 0 -72 30.5t-29 73.5z" />
<glyph unicode="&#xf712;" d="M-978 1022v141q0 101 156 101h375q59 0 59 -57q0 -59 -52 -59h-375q-36 0 -36 -52l4 -12q0 -47 27 -47l10 4l113 37q45 0 89 -30h144q59 0 59 -50q0 -70 -123 -70q-41 0 -159 35h-14q-13 0 -30 -10q-41 -25 -84 -25q-49 0 -100 23q-63 27 -63 71z" />
<glyph unicode="&#xf713;" d="M-639 1361v120q0 39 33 62q29 21 70 21h10q98 -15 98 -74v-143q0 -74 -103 -74q-108 0 -108 88z" />
<glyph unicode="&#xf714;" d="M-763 1405q0 34 37 73q27 27 74 27h26q17 -1 26 -1h5q67 0 98 -69h159q33 0 58.5 -21.5t25.5 -54.5q0 -87 -72 -87h-294q-23 0 -33 27q-2 6 -7 27q-9 -3 -19 -3q-34 0 -59 24.5t-25 57.5z" />
<glyph unicode="&#xf715;" d="M-919 1310v108q0 54 57 87q48 27 106 27q17 0 111 -25q16 6 48.5 16.5t48.5 10.5h10q72 0 106 -17q44 -22 66 -89q91 0 97 -69v-8q0 -71 -74 -71h-121q-57 0 -57 69v44q0 30 -27 30q-30 0 -30 -30v-79q0 -42 -61 -42l-11 -2q-71 0 -71 44v70q0 29 -29 29q-27 0 -27 -29 v-75q0 -39 -60 -39h-7q-55 0 -75 40z" />
<glyph unicode="&#xf716;" d="M-713 1415l3 13q8 62 78 84q11 62 88 62h16q37 0 62 -25q18 -18 26 -49q29 0 53 -20.5t24 -49.5q0 -69 -77 -91q-17 -69 -108 -69q-72 0 -89 63q-33 0 -54.5 24.5t-21.5 57.5z" />
<glyph unicode="&#xf717;" d="M-671 1367l5 23q0 44 27.5 73t71.5 29h294q70 0 70 -87q0 -34 -25 -56.5t-59 -22.5h-158q-34 -69 -98 -69h-5q-123 0 -123 110z" />
<glyph unicode="&#xf718;" d="M-356 -415q0 33 39 52q31 15 67 15h8q99 -12 99 -62v-116q0 -59 -104 -59q-109 0 -109 72v98z" />
<glyph unicode="&#xf719;" d="M-652 -424q0 35 27 59t63 24h4q36 0 59 -21q8 -7 39 -52q9 -31 16 -46q22 -47 46 -47q63 0 63 56q13 32 22 46q28 46 59 46q101 0 111 -100q0 -97 -82 -159q-75 -56 -175 -56h-5q-92 0 -155 64q-49 49 -73 121q-6 22 -19 65z" />
<glyph unicode="&#xf71a;" d="M-364 -456q0 43 28 71.5t71 28.5q40 0 70 -27q29 -32 29 -70q0 -43 -29.5 -71.5t-72.5 -28.5q-38 0 -65 25q-31 29 -31 72z" />
<glyph unicode="&#xf71b;" d="M-615 0v1024h615v-1024h-615z" />
<glyph unicode="&#xf71c;" horiz-adv-x="455" />
<glyph unicode="&#xf71d;" horiz-adv-x="455" d="M24 -4h406v-180h-98v67h-215v-67h-93v180z" />
</font>
</defs>
</svg>
